<svg xmlns="http://www.w3.org/2000/svg" xmlns:v="https://svgstorm.com" viewBox="0 0 637 86" width="637" height="86">
<g fill="None" fill-opacity="0.0" stroke="#FCFDFC" stroke-opacity="1.00" stroke-width="0.3">
</g>
<g fill="None" fill-opacity="0.0" stroke="#B3AA95" stroke-opacity="1.00" stroke-width="0.3"><path d="
M 46.00 14.00 
C 46.85 15.34 45.64 15.32 45.00 17.00
C 47.18 17.26 54.55 15.93 53.00 19.00
C 53.53 19.21 54.16 19.74 55.00 20.00
C 60.03 19.85 65.93 23.82 71.00 26.00
C 72.34 26.58 73.12 26.99 75.00 27.00
C 79.39 26.51 85.28 22.24 89.69 20.69 C 94.11 19.15 93.09 19.93 97.01 18.01 C 100.93 16.09 102.50 18.80 103.00 19.00
C 104.86 19.26 106.28 19.67 108.00 20.00
C 110.58 20.50 112.90 20.55 115.00 24.00
C 115.15 24.24 115.88 25.93 116.00 26.00
C 120.45 28.54 127.60 27.92 132.00 30.00
C 132.50 30.00 133.00 30.00 133.00 30.00
C 134.47 28.58 135.98 29.31 138.00 29.00
C 135.11 27.28 133.14 20.72 129.30 19.70 C 125.46 18.68 122.16 12.85 121.00 12.00
C 115.25 9.06 111.02 8.75 105.00 11.00
C 103.50 11.90 98.65 14.35 96.00 15.00
C 94.74 15.56 93.01 16.67 92.00 17.00
C 89.36 18.77 81.23 18.68 77.00 21.00
C 79.85 14.52 61.31 12.62 64.00 10.00
C 56.83 7.97 52.06 10.37 46.00 14.00 Z" data-index="1"></path>
</g>
<g fill="None" fill-opacity="0.0" stroke="#8D877A" stroke-opacity="1.00" stroke-width="0.3"><path d="
M 92.00 17.00 
C 81.33 20.48 73.54 12.70 64.00 10.00
C 61.31 12.62 79.85 14.52 77.00 21.00
C 81.23 18.68 89.36 18.77 92.00 17.00 Z" data-index="2"></path>
</g>
<g fill="None" fill-opacity="0.0" stroke="#7E7869" stroke-opacity="1.00" stroke-width="0.3"><path d="
M 96.00 15.00 
C 98.65 14.35 103.50 11.90 105.00 11.00
C 101.90 12.16 99.08 13.63 96.00 15.00 Z" data-index="3"></path>
</g>
<g fill="None" fill-opacity="0.0" stroke="#807A6E" stroke-opacity="1.00" stroke-width="0.3"><path d="
M 138.00 29.00 
C 138.35 28.95 138.75 28.09 139.00 28.00
C 132.93 22.33 128.75 15.96 121.00 12.00
C 122.16 12.85 125.46 18.68 129.30 19.70 C 133.14 20.72 135.11 27.28 138.00 29.00 Z" data-index="4"></path>
</g>
<g fill="None" fill-opacity="0.0" stroke="#857F72" stroke-opacity="1.00" stroke-width="0.3"><path d="
M 45.00 15.00 
C 44.42 15.88 43.69 17.31 43.00 18.00
C 45.78 17.37 50.47 18.01 53.00 19.00
C 54.55 15.93 47.18 17.26 45.00 17.00
C 45.64 15.32 46.85 15.34 46.00 14.00
C 45.68 14.19 45.21 14.69 45.00 15.00 Z" data-index="5"></path>
</g>
<g fill="None" fill-opacity="0.0" stroke="#585752" stroke-opacity="1.00" stroke-width="0.3"><path d="
M 32.00 25.00 
C 31.81 25.41 32.00 26.00 32.00 26.00
C 35.50 23.47 40.02 20.98 43.00 18.00
C 43.69 17.31 44.42 15.88 45.00 15.00
C 41.34 18.23 34.18 20.19 32.00 25.00 Z" data-index="6"></path>
</g>
<g fill="None" fill-opacity="0.0" stroke="#827E73" stroke-opacity="1.00" stroke-width="0.3"><path d="
M 75.00 27.00 
C 85.24 27.07 93.07 17.62 103.00 19.00
C 102.50 18.80 100.93 16.09 97.01 18.01 C 93.09 19.93 94.11 19.15 89.69 20.69 C 85.28 22.24 79.39 26.51 75.00 27.00 Z" data-index="7"></path>
</g>
<g fill="None" fill-opacity="0.0" stroke="#FBFCFA" stroke-opacity="1.00" stroke-width="0.3"><path d="
M 32.00 26.00 
C 30.92 28.76 29.35 31.37 28.00 34.00
C 27.32 35.33 26.51 36.60 26.00 38.00
C 25.42 39.58 25.06 41.23 25.00 43.00
C 24.98 43.50 25.15 44.55 25.00 45.00
C 23.58 49.11 23.38 54.88 25.00 59.00
C 25.76 59.89 25.57 59.80 26.00 61.00
C 28.45 67.85 33.63 73.40 36.00 80.00
C 33.02 81.03 29.84 83.32 28.00 86.00
L 86.00 86.00
C 75.52 81.82 66.33 77.52 61.23 65.77 C 56.12 54.02 66.16 42.70 75.00 36.00
C 76.90 34.56 78.95 33.42 81.00 32.00
C 92.11 24.30 102.92 18.40 116.00 26.00
C 115.88 25.93 115.15 24.24 115.00 24.00
C 113.40 22.53 109.73 20.70 108.00 20.00
C 106.28 19.67 104.86 19.26 103.00 19.00
C 93.07 17.62 85.24 27.07 75.00 27.00
C 73.12 26.99 72.34 26.58 71.00 26.00
C 65.14 24.56 60.69 21.75 55.00 20.00
C 54.16 19.74 53.53 19.21 53.00 19.00
C 50.47 18.01 45.78 17.37 43.00 18.00
C 40.02 20.98 35.50 23.47 32.00 26.00 Z" data-index="8"></path>
</g>
<g fill="None" fill-opacity="0.0" stroke="#B5B5B0" stroke-opacity="1.00" stroke-width="0.3"><path d="
M 161.00 20.00 
C 160.55 20.61 160.38 21.40 160.00 22.00
C 161.68 21.25 163.04 19.57 164.00 18.00
C 162.21 17.22 161.90 19.41 161.00 20.00 Z" data-index="9"></path>
</g>
<g fill="None" fill-opacity="0.0" stroke="#7D796B" stroke-opacity="1.00" stroke-width="0.3"><path d="
M 55.00 20.00 
C 60.69 21.75 65.14 24.56 71.00 26.00
C 65.93 23.82 60.03 19.85 55.00 20.00 Z" data-index="10"></path>
</g>
<g fill="None" fill-opacity="0.0" stroke="#847C70" stroke-opacity="1.00" stroke-width="0.3"><path d="
M 108.00 20.00 
C 109.73 20.70 113.40 22.53 115.00 24.00
C 112.90 20.55 110.58 20.50 108.00 20.00 Z" data-index="11"></path>
</g>
<g fill="None" fill-opacity="0.0" stroke="#404841" stroke-opacity="1.00" stroke-width="0.3">
</g>
<g fill="None" fill-opacity="0.0" stroke="#48795F" stroke-opacity="1.00" stroke-width="0.3"><path d="
M 327.00 22.00 
C 327.02 21.96 327.77 22.95 328.00 23.00
C 331.81 23.85 336.14 22.36 340.00 23.00
C 340.79 24.16 338.04 25.53 340.00 26.00
C 340.22 25.21 341.37 21.11 342.00 23.00
C 341.81 21.62 328.98 18.06 327.00 22.00 Z" data-index="13"></path>
</g>
<g fill="None" fill-opacity="0.0" stroke="#345943" stroke-opacity="1.00" stroke-width="0.3"><path d="
M 363.00 21.00 
C 354.91 18.45 346.68 27.66 355.00 32.00 C 363.32 36.34 371.84 23.79 363.00 21.00
M 362.00 22.00 
C 368.48 24.24 362.76 34.03 356.00 31.00 C 349.24 27.97 355.51 19.76 362.00 22.00 Z" data-index="14"></path>
</g>
<g fill="None" fill-opacity="0.0" stroke="#385B43" stroke-opacity="1.00" stroke-width="0.3"><path d="
M 81.00 32.00 
C 81.31 31.96 81.77 32.94 82.00 33.00
C 83.68 32.41 85.27 32.35 87.00 32.00
C 83.90 31.52 85.12 30.95 86.00 30.00
C 91.05 24.56 97.41 26.07 104.00 24.00 C 110.59 21.93 114.33 29.50 121.00 29.00
C 119.49 28.21 117.50 26.87 116.00 26.00
C 102.92 18.40 92.11 24.30 81.00 32.00 Z" data-index="15"></path>
</g>
<g fill="None" fill-opacity="0.0" stroke="#2A5239" stroke-opacity="1.00" stroke-width="0.3">
</g>
<g fill="None" fill-opacity="0.0" stroke="#2E5A41" stroke-opacity="1.00" stroke-width="0.3"><path d="
M 340.00 26.00 
C 336.08 39.77 331.82 53.58 330.00 68.00
C 325.98 67.36 320.44 69.68 318.00 66.00
C 318.26 66.85 317.61 68.21 318.00 69.00
C 322.67 69.00 327.33 69.00 332.00 69.00
C 334.52 65.68 332.14 56.31 334.22 52.22 C 336.30 48.14 337.20 41.90 338.68 37.68 C 340.16 33.46 342.61 27.35 342.00 23.00
C 341.37 21.11 340.22 25.21 340.00 26.00 Z" data-index="17"></path>
</g>
<g fill="None" fill-opacity="0.0" stroke="#5CA77D" stroke-opacity="1.00" stroke-width="0.3"><path d="
M 362.00 22.00 
C 355.51 19.76 349.24 27.97 356.00 31.00 C 362.76 34.03 368.48 24.24 362.00 22.00 Z" data-index="18"></path>
</g>
<g fill="None" fill-opacity="0.0" stroke="#5BA578" stroke-opacity="1.00" stroke-width="0.3"><path d="
M 86.00 30.00 
C 89.28 28.73 94.83 28.76 98.00 30.00
C 108.59 34.16 116.50 37.86 128.00 39.00
C 129.11 38.86 129.34 38.22 130.00 38.00
C 131.66 35.88 138.91 34.19 143.00 32.00
C 141.97 29.63 137.96 32.46 137.00 30.00
C 135.67 30.05 134.33 30.00 133.00 30.00
C 133.00 30.00 132.50 30.00 132.00 30.00
C 131.00 30.00 130.00 30.00 129.00 30.00
C 129.94 30.26 132.26 31.13 133.00 32.00
C 129.28 31.80 124.23 32.28 122.00 29.00
C 121.56 28.84 121.00 29.00 121.00 29.00
C 114.33 29.50 110.59 21.93 104.00 24.00 C 97.41 26.07 91.05 24.56 86.00 30.00 Z" data-index="19"></path>
</g>
<g fill="None" fill-opacity="0.0" stroke="#55A77A" stroke-opacity="1.00" stroke-width="0.3"><path d="
M 324.00 36.00 
C 323.66 36.23 323.00 36.00 323.00 36.00
C 317.67 39.94 303.85 35.91 298.92 42.92 C 293.99 49.93 288.81 56.54 294.31 64.69 C 299.80 72.85 310.57 66.99 316.00 66.00
C 317.68 65.69 316.77 65.38 318.00 66.00
C 320.44 69.68 325.98 67.36 330.00 68.00
C 331.82 53.58 336.08 39.77 340.00 26.00
C 338.04 25.53 340.79 24.16 340.00 23.00
C 336.14 22.36 331.81 23.85 328.00 23.00
C 328.26 25.49 326.11 34.86 324.00 36.00
M 312.00 61.00 
C 311.53 61.12 310.45 60.84 310.00 61.00
C 304.36 62.97 303.68 51.56 308.25 47.25 C 312.82 42.94 322.38 41.54 322.07 48.08 C 321.76 54.62 317.24 63.09 312.00 61.00 Z" data-index="20"></path>
</g>
<g fill="None" fill-opacity="0.0" stroke="#5BA87B" stroke-opacity="1.00" stroke-width="0.3"><path d="
M 397.00 24.00 
C 397.55 23.47 390.81 27.26 386.32 28.32 C 381.83 29.38 378.72 33.36 375.70 36.70 C 372.68 40.03 370.32 47.30 371.00 52.00 C 371.68 56.70 374.43 61.15 378.25 63.75 C 382.06 66.35 389.47 69.47 389.00 69.00
C 389.94 69.27 390.53 69.87 392.00 70.00
C 395.29 69.83 401.50 69.86 403.00 70.00
C 404.64 69.91 405.91 69.25 407.00 69.00
C 406.00 69.00 405.00 69.00 404.00 69.00
C 409.35 69.10 413.54 64.63 410.00 59.00
C 408.49 58.70 407.85 59.81 407.00 60.00
C 402.63 62.68 387.46 61.29 385.22 52.78 C 382.99 44.26 388.47 37.09 396.08 33.08 C 403.68 29.06 417.52 36.40 419.00 25.00
C 413.05 23.21 405.45 25.19 400.00 23.00
C 398.63 23.12 397.87 23.75 397.00 24.00 Z" data-index="21"></path>
</g>
<g fill="None" fill-opacity="0.0" stroke="#366146" stroke-opacity="1.00" stroke-width="0.3"><path d="
M 407.00 60.00 
C 395.41 63.28 381.46 54.37 387.70 42.70 C 393.94 31.02 405.99 32.14 417.00 34.00
C 417.58 30.53 420.19 27.67 420.00 24.00
C 413.68 22.93 406.66 22.43 400.00 23.00
C 405.45 25.19 413.05 23.21 419.00 25.00
C 417.52 36.40 403.68 29.06 396.08 33.08 C 388.47 37.09 382.99 44.26 385.22 52.78 C 387.46 61.29 402.63 62.68 407.00 60.00 Z" data-index="22" style="opacity: 1;"></path>
</g>
<g fill="None" fill-opacity="0.0" stroke="#31563D" stroke-opacity="1.00" stroke-width="0.3"><path d="
M 168.00 70.00 
C 167.96 70.00 168.00 69.00 168.00 69.00
C 170.37 56.29 177.12 43.45 179.98 30.98 C 182.83 18.50 191.41 28.22 200.00 25.00
C 200.19 29.50 199.35 36.13 200.93 40.07 C 202.51 44.02 198.40 52.51 203.00 52.00
C 201.07 44.40 203.44 34.61 201.97 27.03 C 200.51 19.44 185.24 26.43 180.00 24.00
C 179.85 29.17 176.77 35.77 175.32 40.32 C 173.87 44.87 171.53 52.58 170.32 56.32 C 169.11 60.06 164.60 69.90 168.00 70.00 Z" data-index="23" style="opacity: 1;"></path>
</g>
<g fill="None" fill-opacity="0.0" stroke="#295139" stroke-opacity="1.00" stroke-width="0.3"><path d="
M 204.00 52.00 
C 205.51 53.04 209.30 43.77 211.75 40.75 C 214.20 37.74 215.80 31.10 219.30 27.30 C 222.81 23.51 233.68 25.36 239.00 25.00
C 236.74 32.75 236.05 42.32 234.00 50.00 C 231.95 57.69 235.12 70.81 223.00 68.00
C 224.64 70.59 229.43 67.34 231.00 70.00
C 236.00 55.77 237.08 39.25 240.00 24.00
C 233.00 24.00 226.00 24.00 219.00 24.00
C 215.29 33.86 207.68 42.07 204.00 52.00 Z" data-index="24"></path>
</g>
<g fill="None" fill-opacity="0.0" stroke="#2E573D" stroke-opacity="1.00" stroke-width="0.3"><path d="
M 389.00 69.00 
C 389.47 69.47 382.06 66.35 378.25 63.75 C 374.43 61.15 371.68 56.70 371.00 52.00 C 370.32 47.30 372.68 40.03 375.70 36.70 C 378.72 33.36 381.83 29.38 386.32 28.32 C 390.81 27.26 397.55 23.47 397.00 24.00
C 384.83 27.47 374.83 29.69 370.78 43.78 C 366.72 57.87 376.77 65.52 389.00 69.00 Z" data-index="25"></path>
</g>
<g fill="None" fill-opacity="0.0" stroke="#78756A" stroke-opacity="1.00" stroke-width="0.3"><path d="
M 20.00 37.00 
C 23.42 34.89 25.61 31.04 29.00 29.00
C 29.82 30.95 25.24 32.64 28.00 34.00
C 29.35 31.37 30.92 28.76 32.00 26.00
C 32.00 26.00 31.81 25.41 32.00 25.00
C 27.36 26.30 21.89 32.98 20.00 37.00 Z" data-index="26"></path>
</g>
<g fill="None" fill-opacity="0.0" stroke="#5BA577" stroke-opacity="1.00" stroke-width="0.3"><path d="
M 168.00 69.00 
C 169.67 67.65 176.01 67.12 178.00 68.00
C 180.21 63.67 181.60 56.78 183.33 52.33 C 185.06 47.88 184.80 39.21 189.00 37.00
C 189.93 35.61 189.82 37.02 190.00 38.00
C 190.08 38.18 191.00 38.00 191.00 38.00
C 191.47 37.69 192.94 47.32 192.78 50.22 C 192.62 53.12 193.48 59.10 193.00 63.00
C 194.62 63.06 193.71 66.12 194.00 67.00
C 197.33 67.00 200.67 67.00 204.00 67.00
C 208.67 57.91 215.32 43.38 223.00 37.00
C 224.14 36.06 223.84 34.94 225.00 36.00
C 227.96 38.68 222.11 49.52 222.02 54.02 C 221.94 58.53 219.18 67.76 219.00 70.00
C 220.09 70.74 229.78 70.62 231.00 70.00
C 229.43 67.34 224.64 70.59 223.00 68.00
C 235.12 70.81 231.95 57.69 234.00 50.00 C 236.05 42.32 236.74 32.75 239.00 25.00
C 233.68 25.36 222.81 23.51 219.30 27.30 C 215.80 31.10 214.20 37.74 211.75 40.75 C 209.30 43.77 205.51 53.04 204.00 52.00
C 204.00 52.00 203.35 51.77 203.00 52.00
C 198.40 52.51 202.51 44.02 200.93 40.07 C 199.35 36.13 200.19 29.50 200.00 25.00
C 191.41 28.22 182.83 18.50 179.98 30.98 C 177.12 43.45 170.37 56.29 168.00 69.00 Z" data-index="27"></path>
</g>
<g fill="None" fill-opacity="0.0" stroke="#C5D6BE" stroke-opacity="1.00" stroke-width="0.3"><path d="
M 121.00 29.00 
C 121.00 29.00 121.56 28.84 122.00 29.00
C 124.26 29.80 126.47 30.01 129.00 30.00
C 130.00 30.00 131.00 30.00 132.00 30.00
C 127.60 27.92 120.45 28.54 116.00 26.00
C 117.50 26.87 119.49 28.21 121.00 29.00 Z" data-index="28"></path>
</g>
<g fill="None" fill-opacity="0.0" stroke="#36563E" stroke-opacity="1.00" stroke-width="0.3">
</g>
<g fill="None" fill-opacity="0.0" stroke="#CCD8C1" stroke-opacity="1.00" stroke-width="0.3"><path d="
M 138.00 29.00 
C 135.98 29.31 134.47 28.58 133.00 30.00
C 134.33 30.00 135.67 30.05 137.00 30.00
C 138.81 29.93 139.78 29.33 141.00 29.00
C 140.41 28.90 139.44 28.41 139.00 28.00
C 138.75 28.09 138.35 28.95 138.00 29.00 Z" data-index="30"></path>
</g>
<g fill="None" fill-opacity="0.0" stroke="#426E52" stroke-opacity="1.00" stroke-width="0.3"><path d="
M 141.00 29.00 
C 139.78 29.33 138.81 29.93 137.00 30.00
C 137.96 32.46 141.97 29.63 143.00 32.00
C 138.91 34.19 131.66 35.88 130.00 38.00
C 136.00 35.96 140.74 34.50 146.00 31.00
C 146.54 30.08 146.13 28.93 147.00 28.00
C 145.06 28.58 142.93 28.47 141.00 29.00 Z" data-index="31"></path>
</g>
<g fill="None" fill-opacity="0.0" stroke="#5FA676" stroke-opacity="1.00" stroke-width="0.3"><path d="
M 515.00 44.00 
C 515.17 44.07 515.00 45.00 515.00 45.00
C 519.14 50.27 510.04 57.61 513.00 64.00 C 515.96 70.39 526.36 67.31 532.00 68.00
C 536.28 60.95 527.73 61.73 526.23 57.77 C 524.73 53.81 529.07 45.92 530.00 45.00
C 530.11 44.74 530.74 44.24 531.00 44.00
C 533.80 41.41 541.03 44.11 540.00 37.00
C 538.07 36.90 531.26 37.80 533.00 35.00
C 533.00 35.00 532.84 34.45 533.00 34.00
C 530.54 32.73 533.02 29.83 533.00 28.00
C 529.24 28.66 522.95 28.13 520.31 31.31 C 517.66 34.48 519.04 39.78 513.00 37.00
C 512.39 40.60 511.32 42.57 515.00 44.00 Z" data-index="32"></path>
</g>
<g fill="None" fill-opacity="0.0" stroke="#B8AF9A" stroke-opacity="1.00" stroke-width="0.3"><path d="
M 20.00 37.00 
C 19.68 37.20 19.27 37.80 19.00 38.00
C 19.39 44.37 13.59 49.57 14.00 58.00 C 14.41 66.43 16.47 70.46 19.92 78.08 C 23.36 85.70 28.73 84.80 35.00 79.00
C 32.04 73.27 24.33 67.16 26.00 61.00
C 25.57 59.80 25.76 59.89 25.00 59.00
C 22.40 55.97 21.23 45.00 25.00 45.00
C 25.15 44.55 24.98 43.50 25.00 43.00
C 23.80 40.37 24.79 40.37 26.00 38.00
C 26.51 36.60 27.32 35.33 28.00 34.00
C 25.24 32.64 29.82 30.95 29.00 29.00
C 25.61 31.04 23.42 34.89 20.00 37.00 Z" data-index="33"></path>
</g>
<g fill="None" fill-opacity="0.0" stroke="#517C63" stroke-opacity="1.00" stroke-width="0.3"><path d="
M 86.00 30.00 
C 85.12 30.95 83.90 31.52 87.00 32.00
C 91.61 31.07 94.83 29.91 99.00 32.00
C 98.60 31.56 98.37 30.33 98.00 30.00
C 94.83 28.76 89.28 28.73 86.00 30.00 Z" data-index="34"></path>
</g>
<g fill="None" fill-opacity="0.0" stroke="#386E48" stroke-opacity="1.00" stroke-width="0.3"><path d="
M 129.00 30.00 
C 126.47 30.01 124.26 29.80 122.00 29.00
C 124.23 32.28 129.28 31.80 133.00 32.00
C 132.26 31.13 129.94 30.26 129.00 30.00 Z" data-index="35"></path>
</g>
<g fill="None" fill-opacity="0.0" stroke="#335941" stroke-opacity="1.00" stroke-width="0.3"><path d="
M 99.00 32.00 
C 105.31 38.91 119.12 40.09 128.00 39.00
C 116.50 37.86 108.59 34.16 98.00 30.00
C 98.37 30.33 98.60 31.56 99.00 32.00 Z" data-index="36"></path>
</g>
<g fill="None" fill-opacity="0.0" stroke="#2F312B" stroke-opacity="1.00" stroke-width="0.3"><path d="
M 75.00 36.00 
C 74.07 37.70 75.11 38.20 75.00 39.00
C 76.74 35.83 78.45 34.25 82.00 33.00
C 81.77 32.94 81.31 31.96 81.00 32.00
C 78.95 33.42 76.90 34.56 75.00 36.00 Z" data-index="37"></path>
</g>
<g fill="None" fill-opacity="0.0" stroke="#96B19F" stroke-opacity="1.00" stroke-width="0.3">
</g>
<g fill="None" fill-opacity="0.0" stroke="#827D72" stroke-opacity="1.00" stroke-width="0.3"><path d="
M 125.00 75.00 
C 124.81 75.08 125.00 76.00 125.00 76.00
C 132.45 76.12 141.22 64.58 144.00 59.00
C 141.26 61.01 137.03 68.11 132.00 70.00
C 138.82 61.66 136.32 49.24 131.00 41.00
C 135.04 39.74 138.75 37.50 143.00 37.00
C 144.34 40.73 143.39 45.72 146.00 48.00
C 146.12 43.37 144.70 39.13 143.00 35.00
C 138.37 36.81 133.84 38.90 129.00 40.00
C 136.68 50.02 137.14 69.54 125.00 75.00 Z" data-index="39"></path>
</g>
<g fill="None" fill-opacity="0.0" stroke="#CDE9D8" stroke-opacity="1.00" stroke-width="0.3"><path d="
M 223.00 37.00 
C 222.13 38.21 221.73 40.66 221.00 42.00
C 221.06 42.25 222.92 43.65 223.00 44.00
C 223.37 42.51 225.49 37.33 225.00 36.00
C 223.84 34.94 224.14 36.06 223.00 37.00 Z" data-index="40"></path>
</g>
<g fill="None" fill-opacity="0.0" stroke="#305B42" stroke-opacity="1.00" stroke-width="0.3"><path d="
M 259.00 58.00 
C 260.46 56.29 263.79 57.09 266.00 57.00
C 269.55 56.86 272.68 56.76 276.00 56.00
C 273.34 55.74 254.24 53.94 258.26 59.75 C 262.28 65.55 273.62 61.02 279.00 61.00
C 281.18 71.17 265.33 68.89 259.00 69.00 C 252.67 69.11 243.63 62.96 244.40 56.26 C 245.18 49.55 249.07 43.05 255.75 39.75 C 262.43 36.44 271.38 35.54 279.23 38.77 C 287.08 42.01 283.13 53.18 278.00 55.00
C 296.42 46.61 277.98 33.59 266.00 36.00 C 254.02 38.41 238.66 46.43 244.08 60.92 C 249.49 75.41 270.12 69.29 281.00 68.00
C 280.05 65.12 279.77 62.17 280.00 59.00
C 273.83 60.99 263.92 63.51 259.00 58.00 Z" data-index="41"></path>
</g>
<g fill="None" fill-opacity="0.0" stroke="#315B42" stroke-opacity="1.00" stroke-width="0.3"><path d="
M 316.00 66.00 
C 310.57 66.99 299.80 72.85 294.31 64.69 C 288.81 56.54 293.99 49.93 298.92 42.92 C 303.85 35.91 317.67 39.94 323.00 36.00
C 321.30 36.22 319.99 35.12 319.00 35.00
C 307.32 36.65 293.98 37.87 291.00 53.00 C 288.02 68.13 303.86 73.26 316.00 66.00 Z" data-index="42"></path>
</g>
<g fill="None" fill-opacity="0.0" stroke="#385E45" stroke-opacity="1.00" stroke-width="0.3"><path d="
M 446.00 64.00 
C 440.73 64.09 430.64 72.21 424.77 66.23 C 418.90 60.25 420.43 54.50 423.77 47.77 C 427.11 41.05 433.75 39.36 440.67 37.67 C 447.59 35.98 457.57 36.58 465.00 38.00
C 463.85 47.63 458.53 57.48 460.00 67.00
C 456.39 68.71 453.03 67.14 449.00 68.00
C 449.11 66.30 449.38 63.16 447.00 65.00
C 447.00 66.33 447.00 67.67 447.00 69.00
C 451.67 69.00 456.33 69.00 461.00 69.00
C 460.49 57.68 464.58 47.53 467.00 37.00
C 456.96 33.87 441.84 34.33 432.70 38.69 C 423.55 43.06 415.41 51.75 420.08 62.92 C 424.75 74.09 438.90 69.03 446.00 64.00 Z" data-index="43" style="opacity: 1;"></path>
</g>
<g fill="None" fill-opacity="0.0" stroke="#345B40" stroke-opacity="1.00" stroke-width="0.3"><path d="
M 487.00 59.00 
C 490.81 57.21 481.30 54.75 476.77 51.23 C 472.24 47.71 475.17 39.07 482.08 38.08 C 488.98 37.08 495.83 34.16 503.00 37.00
C 505.86 46.83 485.33 38.70 487.01 46.01 C 488.69 53.32 502.78 48.91 501.97 58.03 C 501.17 67.14 491.98 67.35 485.00 68.00
C 486.02 68.18 487.37 69.00 489.00 69.00
C 495.83 68.96 504.40 63.94 502.97 56.03 C 501.55 48.12 490.10 50.72 488.00 44.00
C 492.50 42.46 497.48 43.82 502.00 45.00
C 502.15 41.71 505.47 39.45 505.00 36.00
C 498.05 34.60 489.92 34.63 483.08 36.08 C 476.23 37.52 471.94 43.13 473.25 49.75 C 474.56 56.38 486.68 53.75 487.00 59.00 Z" data-index="44"></path>
</g>
<g fill="None" fill-opacity="0.0" stroke="#2C5438" stroke-opacity="1.00" stroke-width="0.3"><path d="
M 531.00 44.00 
C 533.86 43.37 537.11 44.48 540.00 44.00
C 540.74 43.22 541.18 38.14 541.00 37.00
C 539.30 34.44 534.61 37.63 533.00 35.00
C 531.26 37.80 538.07 36.90 540.00 37.00
C 541.03 44.11 533.80 41.41 531.00 44.00 Z" data-index="45"></path>
</g>
<g fill="None" fill-opacity="0.0" stroke="#8F9F91" stroke-opacity="1.00" stroke-width="0.3"><path d="
M 541.00 37.00 
C 540.51 33.82 537.44 35.40 533.00 35.00
C 534.61 37.63 539.30 34.44 541.00 37.00 Z" data-index="46"></path>
</g>
<g fill="None" fill-opacity="0.0" stroke="#335C42" stroke-opacity="1.00" stroke-width="0.3"><path d="
M 86.00 86.00 
L 108.00 86.00
C 113.20 82.74 121.70 82.74 125.00 76.00
C 125.00 76.00 124.81 75.08 125.00 75.00
C 121.02 76.32 117.29 76.84 113.00 77.00
C 110.27 77.39 107.65 77.32 105.00 77.00
C 86.45 76.63 63.93 59.09 75.00 39.00
C 75.11 38.20 74.07 37.70 75.00 36.00
C 66.16 42.70 56.12 54.02 61.23 65.77 C 66.33 77.52 75.52 81.82 86.00 86.00
M 73.00 40.00 
C 61.44 66.99 98.02 84.81 121.00 78.00
C 107.53 87.95 86.04 87.41 72.25 77.75 C 58.46 68.08 58.26 48.11 73.00 40.00 Z" data-index="47"></path>
</g>
<g fill="None" fill-opacity="0.0" stroke="#2B5039" stroke-opacity="1.00" stroke-width="0.3">
</g>
<g fill="None" fill-opacity="0.0" stroke="#2C5941" stroke-opacity="1.00" stroke-width="0.3"><path d="
M 341.00 69.00 
C 346.00 69.00 351.00 69.00 356.00 69.00
C 358.68 57.98 361.54 47.05 364.00 36.00
C 359.00 36.00 354.00 36.00 349.00 36.00
C 348.47 40.56 344.69 48.53 344.78 52.78 C 344.87 57.03 338.96 65.83 341.00 69.00
M 362.00 37.00 
C 361.00 47.70 355.95 57.28 355.00 68.00
C 351.00 68.00 347.00 68.00 343.00 68.00
C 347.66 56.96 343.67 32.80 362.00 37.00 Z" data-index="49"></path>
</g>
<g fill="None" fill-opacity="0.0" stroke="#5FA677" stroke-opacity="1.00" stroke-width="0.3"><path d="
M 446.00 64.00 
C 446.33 63.99 447.01 64.67 447.00 65.00
C 449.38 63.16 449.11 66.30 449.00 68.00
C 453.03 67.14 456.39 68.71 460.00 67.00
C 458.53 57.48 463.85 47.63 465.00 38.00
C 457.57 36.58 447.59 35.98 440.67 37.67 C 433.75 39.36 427.11 41.05 423.77 47.77 C 420.43 54.50 418.90 60.25 424.77 66.23 C 430.64 72.21 440.73 64.09 446.00 64.00
M 446.00 44.00 
C 446.79 44.17 448.19 44.09 449.00 44.00
C 452.44 43.60 450.17 53.69 447.23 57.23 C 444.29 60.77 437.11 63.46 433.00 59.00
C 433.52 52.70 438.95 41.90 446.00 44.00 Z" data-index="50"></path>
</g>
<g fill="None" fill-opacity="0.0" stroke="#5EA677" stroke-opacity="1.00" stroke-width="0.3"><path d="
M 487.00 59.00 
C 486.73 59.13 486.41 60.81 486.00 61.00
C 486.82 64.98 480.40 60.12 474.78 61.22 C 469.16 62.32 469.02 67.57 477.00 68.00
C 479.64 68.14 482.36 68.05 485.00 68.00
C 491.98 67.35 501.17 67.14 501.97 58.03 C 502.78 48.91 488.69 53.32 487.01 46.01 C 485.33 38.70 505.86 46.83 503.00 37.00
C 495.83 34.16 488.98 37.08 482.08 38.08 C 475.17 39.07 472.24 47.71 476.77 51.23 C 481.30 54.75 490.81 57.21 487.00 59.00 Z" data-index="51"></path>
</g>
<g fill="None" fill-opacity="0.0" stroke="#B8AE99" stroke-opacity="1.00" stroke-width="0.3"><path d="
M 144.00 59.00 
C 144.42 58.15 144.66 58.15 145.00 57.00
C 144.86 54.47 144.97 52.80 146.00 50.00
C 146.21 48.57 146.09 48.86 146.00 48.00
C 143.39 45.72 144.34 40.73 143.00 37.00
C 138.75 37.50 135.04 39.74 131.00 41.00
C 136.32 49.24 138.82 61.66 132.00 70.00
C 137.03 68.11 141.26 61.01 144.00 59.00 Z" data-index="52"></path>
</g>
<g fill="None" fill-opacity="0.0" stroke="#2F553C" stroke-opacity="1.00" stroke-width="0.3"><path d="
M 178.00 68.00 
C 177.80 68.40 178.19 69.92 178.00 70.00
C 182.05 71.36 182.07 56.98 184.22 54.22 C 186.37 51.47 186.93 40.08 189.00 37.00
C 184.80 39.21 185.06 47.88 183.33 52.33 C 181.60 56.78 180.21 63.67 178.00 68.00 Z" data-index="53" style="opacity: 1;"></path>
</g>
<g fill="None" fill-opacity="0.0" stroke="#1F432A" stroke-opacity="1.00" stroke-width="0.3"><path d="
M 191.00 38.00 
C 191.27 40.94 191.00 44.04 191.00 47.00
C 191.00 49.37 190.04 54.72 191.22 56.78 C 192.40 58.84 190.73 63.61 192.00 65.00
C 192.11 64.53 192.88 63.94 193.00 63.00
C 193.48 59.10 192.62 53.12 192.78 50.22 C 192.94 47.32 191.47 37.69 191.00 38.00 Z" data-index="54"></path>
</g>
<g fill="None" fill-opacity="0.0" stroke="#2D523B" stroke-opacity="1.00" stroke-width="0.3"><path d="
M 204.00 67.00 
C 203.91 67.18 203.04 68.98 203.00 69.00
C 204.10 69.93 208.50 62.01 209.25 60.25 C 209.99 58.48 214.09 53.69 215.23 51.23 C 216.37 48.77 219.69 44.42 221.00 42.00
C 221.73 40.66 222.13 38.21 223.00 37.00
C 215.32 43.38 208.67 57.91 204.00 67.00 Z" data-index="55"></path>
</g>
<g fill="None" fill-opacity="0.0" stroke="#56A579" stroke-opacity="1.00" stroke-width="0.3"><path d="
M 276.00 56.00 
C 277.04 55.76 277.33 55.28 278.00 55.00
C 283.13 53.18 287.08 42.01 279.23 38.77 C 271.38 35.54 262.43 36.44 255.75 39.75 C 249.07 43.05 245.18 49.55 244.40 56.26 C 243.63 62.96 252.67 69.11 259.00 69.00 C 265.33 68.89 281.18 71.17 279.00 61.00
C 273.62 61.02 262.28 65.55 258.26 59.75 C 254.24 53.94 273.34 55.74 276.00 56.00
M 258.00 49.00 
C 259.06 44.66 268.40 38.87 272.22 43.78 C 276.05 48.68 261.67 52.91 258.00 49.00 Z" data-index="56"></path>
</g>
<g fill="None" fill-opacity="0.0" stroke="#56A97C" stroke-opacity="1.00" stroke-width="0.3"><path d="
M 362.00 37.00 
C 343.67 32.80 347.66 56.96 343.00 68.00
C 347.00 68.00 351.00 68.00 355.00 68.00
C 355.95 57.28 361.00 47.70 362.00 37.00 Z" data-index="57"></path>
</g>
<g fill="None" fill-opacity="0.0" stroke="#7F7A6D" stroke-opacity="1.00" stroke-width="0.3"><path d="
M 23.00 86.00 
L 28.00 86.00
C 29.84 83.32 33.02 81.03 36.00 80.00
C 33.63 73.40 28.45 67.85 26.00 61.00
C 24.33 67.16 32.04 73.27 35.00 79.00
C 28.73 84.80 23.36 85.70 19.92 78.08 C 16.47 70.46 14.41 66.43 14.00 58.00 C 13.59 49.57 19.39 44.37 19.00 38.00
C 12.17 43.10 13.06 56.01 13.01 63.99 C 12.96 71.97 19.28 79.36 23.00 86.00 Z" data-index="58"></path>
</g>
<g fill="None" fill-opacity="0.0" stroke="#6B655A" stroke-opacity="1.00" stroke-width="0.3"><path d="
M 25.00 43.00 
C 25.06 41.23 25.42 39.58 26.00 38.00
C 24.79 40.37 23.80 40.37 25.00 43.00 Z" data-index="59"></path>
</g>
<g fill="None" fill-opacity="0.0" stroke="#899C8E" stroke-opacity="1.00" stroke-width="0.3"><path d="
M 191.00 47.00 
C 191.00 44.04 191.27 40.94 191.00 38.00
C 191.00 38.00 190.08 38.18 190.00 38.00
C 190.48 40.57 190.80 44.93 191.00 47.00 Z" data-index="60"></path>
</g>
<g fill="None" fill-opacity="0.0" stroke="#5BAB7C" stroke-opacity="1.00" stroke-width="0.3"><path d="
M 73.00 40.00 
C 58.26 48.11 58.46 68.08 72.25 77.75 C 86.04 87.41 107.53 87.95 121.00 78.00
C 98.02 84.81 61.44 66.99 73.00 40.00 Z" data-index="61"></path>
</g>
<g fill="None" fill-opacity="0.0" stroke="#346244" stroke-opacity="1.00" stroke-width="0.3"><path d="
M 258.00 49.00 
C 261.67 52.91 276.05 48.68 272.22 43.78 C 268.40 38.87 259.06 44.66 258.00 49.00
M 260.00 49.00 
C 259.74 45.26 268.70 41.16 271.22 44.78 C 273.74 48.40 262.71 50.06 260.00 49.00 Z" data-index="62"></path>
</g>
<g fill="None" fill-opacity="0.0" stroke="#325E42" stroke-opacity="1.00" stroke-width="0.3"><path d="
M 310.00 61.00 
C 302.45 57.93 307.67 44.02 316.07 44.07 C 324.48 44.13 319.17 59.13 312.00 61.00
C 317.24 63.09 321.76 54.62 322.07 48.08 C 322.38 41.54 312.82 42.94 308.25 47.25 C 303.68 51.56 304.36 62.97 310.00 61.00 Z" data-index="63"></path>
</g>
<g fill="None" fill-opacity="0.0" stroke="#395F43" stroke-opacity="1.00" stroke-width="0.3"><path d="
M 449.00 44.00 
C 451.14 44.91 446.24 63.59 439.00 60.00 C 431.76 56.41 439.07 44.68 446.00 44.00
C 438.95 41.90 433.52 52.70 433.00 59.00
C 437.11 63.46 444.29 60.77 447.23 57.23 C 450.17 53.69 452.44 43.60 449.00 44.00 Z" data-index="64"></path>
</g>
<g fill="None" fill-opacity="0.0" stroke="#787366" stroke-opacity="1.00" stroke-width="0.3"><path d="
M 25.00 59.00 
C 23.38 54.88 23.58 49.11 25.00 45.00
C 21.23 45.00 22.40 55.97 25.00 59.00 Z" data-index="65"></path>
</g>
<g fill="None" fill-opacity="0.0" stroke="#E7F1E7" stroke-opacity="1.00" stroke-width="0.3"><path d="
M 260.00 49.00 
C 262.71 50.06 273.74 48.40 271.22 44.78 C 268.70 41.16 259.74 45.26 260.00 49.00 Z" data-index="66" style="opacity: 1;"></path>
</g>
<g fill="None" fill-opacity="0.0" stroke="#F3F7F3" stroke-opacity="1.00" stroke-width="0.3"><path d="
M 310.00 61.00 
C 310.45 60.84 311.53 61.12 312.00 61.00
C 319.17 59.13 324.48 44.13 316.07 44.07 C 307.67 44.02 302.45 57.93 310.00 61.00 Z" data-index="67" style="opacity: 1;"></path>
</g>
<g fill="None" fill-opacity="0.0" stroke="#F6FAF5" stroke-opacity="1.00" stroke-width="0.3"><path d="
M 449.00 44.00 
C 448.19 44.09 446.79 44.17 446.00 44.00
C 439.07 44.68 431.76 56.41 439.00 60.00 C 446.24 63.59 451.14 44.91 449.00 44.00 Z" data-index="68"></path>
</g>
<g fill="None" fill-opacity="0.0" stroke="#A2BAA7" stroke-opacity="1.00" stroke-width="0.3"><path d="
M 515.00 46.00 
C 515.16 45.55 515.00 45.00 515.00 45.00
C 515.00 45.00 515.17 44.07 515.00 44.00
C 513.51 43.49 511.53 44.39 510.00 44.00
C 510.57 45.09 513.73 45.72 515.00 46.00 Z" data-index="69"></path>
</g>
<g fill="None" fill-opacity="0.0" stroke="#2F533A" stroke-opacity="1.00" stroke-width="0.3"><path d="
M 515.00 45.00 
C 515.00 45.00 515.16 45.55 515.00 46.00
C 511.97 54.65 507.63 66.18 519.00 69.00
C 521.78 69.34 528.45 70.04 531.00 69.00
C 534.76 68.35 532.78 62.55 535.00 60.00
C 524.38 62.46 529.34 52.19 530.00 47.00
C 530.06 46.51 529.82 45.42 530.00 45.00
C 529.07 45.92 524.73 53.81 526.23 57.77 C 527.73 61.73 536.28 60.95 532.00 68.00
C 526.36 67.31 515.96 70.39 513.00 64.00 C 510.04 57.61 519.14 50.27 515.00 45.00 Z" data-index="70"></path>
</g>
<g fill="None" fill-opacity="0.0" stroke="#B3C8B9" stroke-opacity="1.00" stroke-width="0.3"><path d="
M 530.00 45.00 
C 529.82 45.42 530.06 46.51 530.00 47.00
C 532.32 45.72 538.30 45.81 540.00 44.00
C 537.11 44.48 533.86 43.37 531.00 44.00
C 530.74 44.24 530.11 44.74 530.00 45.00 Z" data-index="71"></path>
</g>
<g fill="None" fill-opacity="0.0" stroke="#7A776C" stroke-opacity="1.00" stroke-width="0.3"><path d="
M 145.00 57.00 
C 145.73 54.57 145.63 52.54 146.00 50.00
C 144.97 52.80 144.86 54.47 145.00 57.00 Z" data-index="72"></path>
</g>
<g fill="None" fill-opacity="0.0" stroke="#3B6049" stroke-opacity="1.00" stroke-width="0.3"><path d="
M 563.00 62.00 
C 562.88 61.84 557.85 56.04 561.76 54.75 C 565.66 53.47 570.30 51.47 573.00 55.00
C 562.00 54.91 566.50 57.50 571.69 61.31 C 576.89 65.11 560.99 71.55 559.00 67.00
C 561.26 65.10 565.27 66.51 568.00 65.00
C 567.43 63.86 566.29 60.56 565.00 63.00
C 566.68 62.62 565.28 65.12 563.96 64.97 C 562.64 64.82 560.18 63.96 560.00 64.00
C 559.00 64.00 558.00 64.00 557.00 64.00
C 554.75 71.04 565.44 70.29 570.75 67.75 C 576.06 65.21 572.00 58.02 567.00 57.00
C 569.62 54.53 574.47 58.64 575.00 53.00
C 568.64 47.44 551.23 56.86 563.00 62.00 Z" data-index="73"></path>
</g>
<g fill="None" fill-opacity="0.0" stroke="#375D42" stroke-opacity="1.00" stroke-width="0.3"><path d="
M 589.00 61.00 
C 588.84 62.33 588.65 64.71 589.00 66.00
C 591.75 71.20 595.90 67.68 600.00 68.00
C 596.28 66.04 585.25 65.49 591.75 57.75 C 598.26 50.02 602.45 54.53 610.00 54.00
C 608.11 58.08 607.39 62.49 607.00 67.00
C 605.22 67.25 601.64 65.97 602.00 69.00
C 604.00 69.00 606.00 69.00 608.00 69.00
C 609.56 62.63 613.11 51.50 605.00 52.00 C 596.89 52.50 589.96 52.78 589.00 61.00 Z" data-index="74" style="opacity: 1;"></path>
</g>
<g fill="None" fill-opacity="0.0" stroke="#5DA47C" stroke-opacity="1.00" stroke-width="0.3"><path d="
M 563.00 62.00 
C 564.02 62.45 563.40 62.97 565.00 63.00
C 566.29 60.56 567.43 63.86 568.00 65.00
C 565.27 66.51 561.26 65.10 559.00 67.00
C 560.99 71.55 576.89 65.11 571.69 61.31 C 566.50 57.50 562.00 54.91 573.00 55.00
C 570.30 51.47 565.66 53.47 561.76 54.75 C 557.85 56.04 562.88 61.84 563.00 62.00 Z" data-index="75"></path>
</g>
<g fill="None" fill-opacity="0.0" stroke="#62A87B" stroke-opacity="1.00" stroke-width="0.3"><path d="
M 600.00 68.00 
C 600.51 68.27 601.43 68.85 602.00 69.00
C 601.64 65.97 605.22 67.25 607.00 67.00
C 607.39 62.49 608.11 58.08 610.00 54.00
C 602.45 54.53 598.26 50.02 591.75 57.75 C 585.25 65.49 596.28 66.04 600.00 68.00
M 602.00 56.00 
C 602.29 56.22 602.78 56.71 603.00 57.00
C 605.14 59.84 602.55 64.29 600.00 64.00
C 599.11 63.90 597.89 63.90 597.00 64.00
C 592.29 64.55 597.21 52.37 602.00 56.00 Z" data-index="76"></path>
</g>
<g fill="None" fill-opacity="0.0" stroke="#355E43" stroke-opacity="1.00" stroke-width="0.3"><path d="
M 597.00 64.00 
C 593.20 61.86 599.71 56.04 602.00 56.00
C 597.21 52.37 592.29 64.55 597.00 64.00 Z" data-index="77"></path>
</g>
<g fill="None" fill-opacity="0.0" stroke="#EBF6EE" stroke-opacity="1.00" stroke-width="0.3">
</g>
<g fill="None" fill-opacity="0.0" stroke="#84AC98" stroke-opacity="1.00" stroke-width="0.3"><path d="
M 259.00 58.00 
C 261.36 58.91 264.33 57.20 266.00 57.00
C 263.79 57.09 260.46 56.29 259.00 58.00 Z" data-index="79"></path>
</g>
<g fill="None" fill-opacity="0.0" stroke="#305B3B" stroke-opacity="1.00" stroke-width="0.3">
</g>
<g fill="None" fill-opacity="0.0" stroke="#2F5943" stroke-opacity="1.00" stroke-width="0.3"><path d="
M 407.00 69.00 
C 408.99 68.54 414.63 68.72 412.93 65.07 C 411.22 61.43 413.41 59.68 410.00 59.00
C 413.54 64.63 409.35 69.10 404.00 69.00
C 405.00 69.00 406.00 69.00 407.00 69.00 Z" data-index="81"></path>
</g>
<g fill="None" fill-opacity="0.0" stroke="#395D44" stroke-opacity="1.00" stroke-width="0.3"><path d="
M 475.00 69.00 
C 476.23 68.89 476.29 68.18 477.00 68.00
C 469.02 67.57 469.16 62.32 474.78 61.22 C 480.40 60.12 486.82 64.98 486.00 61.00
C 480.71 61.50 475.78 60.42 471.00 59.00
C 470.85 62.29 467.53 64.55 468.00 68.00
C 470.40 68.49 472.59 68.57 475.00 69.00 Z" data-index="82"></path>
</g>
<g fill="None" fill-opacity="0.0" stroke="#8B9C8C" stroke-opacity="1.00" stroke-width="0.3">
</g>
<g fill="None" fill-opacity="0.0" stroke="#31503A" stroke-opacity="1.00" stroke-width="0.3"><path d="
M 583.00 62.00 
C 578.25 59.91 573.34 66.30 578.00 69.00 C 582.66 71.70 587.78 64.10 583.00 62.00
M 582.00 63.00 
C 585.13 64.68 581.32 69.71 578.33 67.67 C 575.33 65.62 579.71 61.77 582.00 63.00 Z" data-index="84"></path>
</g>
<g fill="None" fill-opacity="0.0" stroke="#30503D" stroke-opacity="1.00" stroke-width="0.3"><path d="
M 621.00 62.00 
C 617.31 59.54 610.19 65.06 614.78 68.22 C 619.36 71.38 625.33 64.89 621.00 62.00
M 620.00 63.00 
C 623.31 64.90 619.07 69.76 615.78 67.22 C 612.49 64.68 617.92 61.80 620.00 63.00 Z" data-index="85"></path>
</g>
<g fill="None" fill-opacity="0.0" stroke="#47725A" stroke-opacity="1.00" stroke-width="0.3"><path d="
M 192.00 65.00 
C 190.82 69.90 200.09 70.34 203.00 69.00
C 203.04 68.98 203.91 67.18 204.00 67.00
C 200.67 67.00 197.33 67.00 194.00 67.00
C 193.71 66.12 194.62 63.06 193.00 63.00
C 192.88 63.94 192.11 64.53 192.00 65.00 Z" data-index="86"></path>
</g>
<g fill="None" fill-opacity="0.0" stroke="#BADEC3" stroke-opacity="1.00" stroke-width="0.3">
</g>
<g fill="None" fill-opacity="0.0" stroke="#63AA7E" stroke-opacity="1.00" stroke-width="0.3"><path d="
M 582.00 63.00 
C 579.71 61.77 575.33 65.62 578.33 67.67 C 581.32 69.71 585.13 64.68 582.00 63.00 Z" data-index="88"></path>
</g>
<g fill="None" fill-opacity="0.0" stroke="#559E7B" stroke-opacity="1.00" stroke-width="0.3"><path d="
M 620.00 63.00 
C 617.92 61.80 612.49 64.68 615.78 67.22 C 619.07 69.76 623.31 64.90 620.00 63.00 Z" data-index="89"></path>
</g>
<g fill="None" fill-opacity="0.0" stroke="#4B775D" stroke-opacity="1.00" stroke-width="0.3"><path d="
M 168.00 69.00 
C 168.00 69.00 167.96 70.00 168.00 70.00
C 170.32 70.21 175.91 70.93 178.00 70.00
C 178.19 69.92 177.80 68.40 178.00 68.00
C 176.01 67.12 169.67 67.65 168.00 69.00 Z" data-index="90"></path>
</g>
<g fill="None" fill-opacity="0.0" stroke="#28583F" stroke-opacity="1.00" stroke-width="0.3"><path d="
M 392.00 70.00 
C 395.53 70.30 399.46 70.21 403.00 70.00
C 401.50 69.86 395.29 69.83 392.00 70.00 Z" data-index="91"></path>
</g>
<g fill="None" fill-opacity="0.0" stroke="#5C846B" stroke-opacity="1.00" stroke-width="0.3"><path d="
M 475.00 69.00 
C 479.53 69.81 484.39 69.96 489.00 69.00
C 487.37 69.00 486.02 68.18 485.00 68.00
C 482.36 68.05 479.64 68.14 477.00 68.00
C 476.29 68.18 476.23 68.89 475.00 69.00 Z" data-index="92"></path>
</g>
<g fill="None" fill-opacity="0.0" stroke="#85A595" stroke-opacity="1.00" stroke-width="0.3"><path d="
M 332.00 69.00 
C 327.33 69.00 322.67 69.00 318.00 69.00
C 319.00 71.03 330.72 70.69 332.00 69.00 Z" data-index="93"></path>
</g>
<g fill="None" fill-opacity="0.0" stroke="#93B8A7" stroke-opacity="1.00" stroke-width="0.3"><path d="
M 356.00 69.00 
C 351.00 69.00 346.00 69.00 341.00 69.00
C 342.41 71.19 354.27 70.64 356.00 69.00 Z" data-index="94"></path>
</g>
<g fill="None" fill-opacity="0.0" stroke="#809E8B" stroke-opacity="1.00" stroke-width="0.3"><path d="
M 531.00 69.00 
C 528.45 70.04 521.78 69.34 519.00 69.00
C 522.33 69.83 527.61 71.05 531.00 69.00 Z" data-index="95"></path>
</g>
<g fill="None" fill-opacity="0.0" stroke="#94B39F" stroke-opacity="1.00" stroke-width="0.3">
</g>
<g fill="#FCFDFC" fill-opacity="1.00" stroke="None">
<path d="
M 0.00 86.00 
L 23.00 86.00
C 19.28 79.36 12.96 71.97 13.01 63.99 C 13.06 56.01 12.17 43.10 19.00 38.00
C 19.27 37.80 19.68 37.20 20.00 37.00
C 21.89 32.98 27.36 26.30 32.00 25.00
C 34.18 20.19 41.34 18.23 45.00 15.00
C 45.21 14.69 45.68 14.19 46.00 14.00
C 52.06 10.37 56.83 7.97 64.00 10.00
C 73.54 12.70 81.33 20.48 92.00 17.00
C 93.01 16.67 94.74 15.56 96.00 15.00
C 99.08 13.63 101.90 12.16 105.00 11.00
C 111.02 8.75 115.25 9.06 121.00 12.00
C 128.75 15.96 132.93 22.33 139.00 28.00
C 139.44 28.41 140.41 28.90 141.00 29.00
C 142.93 28.47 145.06 28.58 147.00 28.00
C 152.16 26.45 156.51 22.92 161.00 20.00
C 161.90 19.41 162.21 17.22 164.00 18.00
C 163.04 19.57 161.68 21.25 160.00 22.00
C 155.81 25.44 150.64 27.91 146.00 31.00
C 140.74 34.50 136.00 35.96 130.00 38.00
C 129.34 38.22 129.11 38.86 128.00 39.00
C 119.12 40.09 105.31 38.91 99.00 32.00
C 94.83 29.91 91.61 31.07 87.00 32.00
C 85.27 32.35 83.68 32.41 82.00 33.00
C 78.45 34.25 76.74 35.83 75.00 39.00
C 63.93 59.09 86.45 76.63 105.00 77.00
C 107.65 77.05 110.35 77.10 113.00 77.00
C 117.29 76.84 121.02 76.32 125.00 75.00
C 137.14 69.54 136.68 50.02 129.00 40.00
C 133.84 38.90 138.37 36.81 143.00 35.00
C 144.70 39.13 146.12 43.37 146.00 48.00
C 146.09 48.86 146.21 48.57 146.00 50.00
C 145.63 52.54 145.73 54.57 145.00 57.00
C 144.66 58.15 144.42 58.15 144.00 59.00
C 141.22 64.58 132.45 76.12 125.00 76.00
C 121.70 82.74 113.20 82.74 108.00 86.00
L 637.00 86.00
L 637.00 0.00
L 0.00 0.00
L 0.00 86.00
M 342.00 23.00 
C 342.61 27.35 340.16 33.46 338.68 37.68 C 337.20 41.90 336.30 48.14 334.22 52.22 C 332.14 56.31 334.52 65.68 332.00 69.00
C 330.72 70.69 319.00 71.03 318.00 69.00
C 317.61 68.21 318.26 66.85 318.00 66.00
C 316.77 65.38 317.68 65.69 316.00 66.00
C 303.86 73.26 288.02 68.13 291.00 53.00 C 293.98 37.87 307.32 36.65 319.00 35.00
C 319.27 34.96 324.25 34.19 324.00 34.00
C 324.81 30.50 325.02 25.06 327.00 22.00
C 328.98 18.06 341.81 21.62 342.00 23.00
M 363.00 21.00 
C 371.84 23.79 363.32 36.34 355.00 32.00 C 346.68 27.66 354.91 18.45 363.00 21.00
M 407.00 60.00 
C 407.85 59.81 408.49 58.70 410.00 59.00
C 413.41 59.68 411.22 61.43 412.93 65.07 C 414.63 68.72 408.99 68.54 407.00 69.00
C 405.91 69.25 404.64 69.91 403.00 70.00
C 399.46 70.21 395.53 70.30 392.00 70.00
C 390.53 69.87 389.94 69.27 389.00 69.00
C 376.77 65.52 366.72 57.87 370.78 43.78 C 374.83 29.69 384.83 27.47 397.00 24.00
C 397.87 23.75 398.63 23.12 400.00 23.00
C 406.66 22.43 413.68 22.93 420.00 24.00
C 420.19 27.67 417.58 30.53 417.00 34.00
C 405.99 32.14 393.94 31.02 387.70 42.70 C 381.46 54.37 395.41 63.28 407.00 60.00
M 203.00 52.00 
C 203.35 51.77 204.00 52.00 204.00 52.00
C 207.68 42.07 215.29 33.86 219.00 24.00
C 226.00 24.00 233.00 24.00 240.00 24.00
C 237.08 39.25 236.00 55.77 231.00 70.00
C 229.78 70.62 220.09 70.74 219.00 70.00
C 215.95 67.93 219.89 60.38 219.98 56.98 C 220.07 53.57 222.14 47.48 223.00 44.00
C 222.92 43.65 221.06 42.25 221.00 42.00
C 219.69 44.42 216.37 48.77 215.23 51.23 C 214.09 53.69 209.99 58.48 209.25 60.25 C 208.50 62.01 204.10 69.93 203.00 69.00
C 200.09 70.34 190.82 69.90 192.00 65.00
C 190.73 63.61 192.40 58.84 191.22 56.78 C 190.04 54.72 191.00 49.37 191.00 47.00
C 190.80 44.93 190.48 40.57 190.00 38.00
C 189.82 37.02 189.93 35.61 189.00 37.00
C 186.93 40.08 186.37 51.47 184.22 54.22 C 182.07 56.98 182.05 71.36 178.00 70.00
C 175.91 70.93 170.32 70.21 168.00 70.00
C 164.60 69.90 169.11 60.06 170.32 56.32 C 171.53 52.58 173.87 44.87 175.32 40.32 C 176.77 35.77 179.85 29.17 180.00 24.00
C 185.24 26.43 200.51 19.44 201.97 27.03 C 203.44 34.61 201.07 44.40 203.00 52.00
M 533.00 34.00 
C 532.84 34.45 533.00 35.00 533.00 35.00
C 537.44 35.40 540.51 33.82 541.00 37.00
C 541.18 38.14 540.74 43.22 540.00 44.00
C 538.30 45.81 532.32 45.72 530.00 47.00
C 529.34 52.19 524.38 62.46 535.00 60.00
C 532.78 62.55 534.76 68.35 531.00 69.00
C 527.61 71.05 522.33 69.83 519.00 69.00
C 507.63 66.18 511.97 54.65 515.00 46.00
C 513.73 45.72 510.57 45.09 510.00 44.00
C 508.42 40.98 513.03 33.59 517.00 36.00
C 516.78 26.02 528.37 28.61 535.00 26.00
C 533.93 28.54 534.43 31.55 533.00 34.00
M 278.00 55.00 
C 277.33 55.28 277.04 55.76 276.00 56.00
C 272.68 56.76 269.55 56.86 266.00 57.00
C 264.33 57.20 261.36 58.91 259.00 58.00
C 263.92 63.51 273.83 60.99 280.00 59.00
C 279.77 62.17 280.05 65.12 281.00 68.00
C 270.12 69.29 249.49 75.41 244.08 60.92 C 238.66 46.43 254.02 38.41 266.00 36.00 C 277.98 33.59 296.42 46.61 278.00 55.00
M 447.00 65.00 
C 447.01 64.67 446.33 63.99 446.00 64.00
C 438.90 69.03 424.75 74.09 420.08 62.92 C 415.41 51.75 423.55 43.06 432.70 38.69 C 441.84 34.33 456.96 33.87 467.00 37.00
C 464.58 47.53 460.49 57.68 461.00 69.00
C 456.33 69.00 451.67 69.00 447.00 69.00
C 447.00 67.67 447.00 66.33 447.00 65.00
M 489.00 69.00 
C 484.39 69.96 479.53 69.81 475.00 69.00
C 472.59 68.57 470.40 68.49 468.00 68.00
C 467.53 64.55 470.85 62.29 471.00 59.00
C 475.78 60.42 480.71 61.50 486.00 61.00
C 486.41 60.81 486.73 59.13 487.00 59.00
C 486.68 53.75 474.56 56.38 473.25 49.75 C 471.94 43.13 476.23 37.52 483.08 36.08 C 489.92 34.63 498.05 34.60 505.00 36.00
C 505.47 39.45 502.15 41.71 502.00 45.00
C 497.48 43.82 492.50 42.46 488.00 44.00
C 490.10 50.72 501.55 48.12 502.97 56.03 C 504.40 63.94 495.83 68.96 489.00 69.00
M 356.00 69.00 
C 354.27 70.64 342.41 71.19 341.00 69.00
C 338.96 65.83 344.87 57.03 344.78 52.78 C 344.69 48.53 348.47 40.56 349.00 36.00
C 354.00 36.00 359.00 36.00 364.00 36.00
C 361.54 47.05 358.68 57.98 356.00 69.00
M 560.00 64.00 
C 560.37 63.90 565.74 64.38 565.00 63.00
C 563.40 62.97 564.02 62.45 563.00 62.00
C 551.23 56.86 568.64 47.44 575.00 53.00
C 574.47 58.64 569.62 54.53 567.00 57.00
C 572.00 58.02 576.06 65.21 570.75 67.75 C 565.44 70.29 554.75 71.04 557.00 64.00
C 558.00 64.00 559.00 64.00 560.00 64.00
M 602.00 69.00 
C 601.43 68.85 600.51 68.27 600.00 68.00
C 595.90 67.68 591.75 71.20 589.00 66.00
C 587.79 63.70 588.39 63.14 589.00 61.00
C 589.96 52.78 596.89 52.50 605.00 52.00 C 613.11 51.50 609.56 62.63 608.00 69.00
C 606.00 69.00 604.00 69.00 602.00 69.00
M 583.00 62.00 
C 587.78 64.10 582.66 71.70 578.00 69.00 C 573.34 66.30 578.25 59.91 583.00 62.00
M 621.00 62.00 
C 625.33 64.89 619.36 71.38 614.78 68.22 C 610.19 65.06 617.31 59.54 621.00 62.00 Z" data-index="97" style="visibility: hidden;"></path>
</g>
<g fill="#B3AA95" fill-opacity="1.00" stroke="None">
<path d="
M 46.00 14.00 
C 46.85 15.34 45.64 15.32 45.00 17.00
C 47.18 17.26 54.55 15.93 53.00 19.00
C 53.53 19.21 54.16 19.74 55.00 20.00
C 60.03 19.85 65.93 23.82 71.00 26.00
C 72.34 26.58 73.12 26.99 75.00 27.00
C 79.39 26.51 85.28 22.24 89.69 20.69 C 94.11 19.15 93.09 19.93 97.01 18.01 C 100.93 16.09 102.50 18.80 103.00 19.00
C 104.86 19.26 106.28 19.67 108.00 20.00
C 110.58 20.50 112.90 20.55 115.00 24.00
C 115.15 24.24 115.88 25.93 116.00 26.00
C 120.45 28.54 127.60 27.92 132.00 30.00
C 132.50 30.00 133.00 30.00 133.00 30.00
C 134.47 28.58 135.98 29.31 138.00 29.00
C 135.11 27.28 133.14 20.72 129.30 19.70 C 125.46 18.68 122.16 12.85 121.00 12.00
C 115.25 9.06 111.02 8.75 105.00 11.00
C 103.50 11.90 98.65 14.35 96.00 15.00
C 94.74 15.56 93.01 16.67 92.00 17.00
C 89.36 18.77 81.23 18.68 77.00 21.00
C 79.85 14.52 61.31 12.62 64.00 10.00
C 56.83 7.97 52.06 10.37 46.00 14.00 Z" data-index="98" style="opacity: 1;"></path>
</g>
<g fill="#8D877A" fill-opacity="1.00" stroke="None">
<path d="
M 92.00 17.00 
C 81.33 20.48 73.54 12.70 64.00 10.00
C 61.31 12.62 79.85 14.52 77.00 21.00
C 81.23 18.68 89.36 18.77 92.00 17.00 Z" data-index="99"></path>
</g>
<g fill="#7E7869" fill-opacity="1.00" stroke="None">
<path d="
M 96.00 15.00 
C 98.65 14.35 103.50 11.90 105.00 11.00
C 101.90 12.16 99.08 13.63 96.00 15.00 Z" data-index="100"></path>
</g>
<g fill="#807A6E" fill-opacity="1.00" stroke="None">
<path d="
M 138.00 29.00 
C 138.35 28.95 138.75 28.09 139.00 28.00
C 132.93 22.33 128.75 15.96 121.00 12.00
C 122.16 12.85 125.46 18.68 129.30 19.70 C 133.14 20.72 135.11 27.28 138.00 29.00 Z" data-index="101"></path>
</g>
<g fill="#857F72" fill-opacity="1.00" stroke="None">
<path d="
M 45.00 15.00 
C 44.42 15.88 43.69 17.31 43.00 18.00
C 45.78 17.37 50.47 18.01 53.00 19.00
C 54.55 15.93 47.18 17.26 45.00 17.00
C 45.64 15.32 46.85 15.34 46.00 14.00
C 45.68 14.19 45.21 14.69 45.00 15.00 Z" data-index="102"></path>
</g>
<g fill="#585752" fill-opacity="1.00" stroke="None">
<path d="
M 32.00 25.00 
C 31.81 25.41 32.00 26.00 32.00 26.00
C 35.50 23.47 40.02 20.98 43.00 18.00
C 43.69 17.31 44.42 15.88 45.00 15.00
C 41.34 18.23 34.18 20.19 32.00 25.00 Z" data-index="103"></path>
</g>
<g fill="#827E73" fill-opacity="1.00" stroke="None">
<path d="
M 75.00 27.00 
C 85.24 27.07 93.07 17.62 103.00 19.00
C 102.50 18.80 100.93 16.09 97.01 18.01 C 93.09 19.93 94.11 19.15 89.69 20.69 C 85.28 22.24 79.39 26.51 75.00 27.00 Z" data-index="104"></path>
</g>
<g fill="#FBFCFA" fill-opacity="1.00" stroke="None">

</g>
<g fill="#B5B5B0" fill-opacity="1.00" stroke="None">
<path d="
M 161.00 20.00 
C 160.55 20.61 160.38 21.40 160.00 22.00
C 161.68 21.25 163.04 19.57 164.00 18.00
C 162.21 17.22 161.90 19.41 161.00 20.00 Z" data-index="106"></path>
</g>
<g fill="#7D796B" fill-opacity="1.00" stroke="None">
<path d="
M 55.00 20.00 
C 60.69 21.75 65.14 24.56 71.00 26.00
C 65.93 23.82 60.03 19.85 55.00 20.00 Z" data-index="107"></path>
</g>
<g fill="#847C70" fill-opacity="1.00" stroke="None">
<path d="
M 108.00 20.00 
C 109.73 20.70 113.40 22.53 115.00 24.00
C 112.90 20.55 110.58 20.50 108.00 20.00 Z" data-index="108"></path>
</g>
<g fill="#404841" fill-opacity="1.00" stroke="None">

</g>
<g fill="#48795F" fill-opacity="1.00" stroke="None">
<path d="
M 327.00 22.00 
C 327.02 21.96 327.77 22.95 328.00 23.00
C 331.81 23.85 336.14 22.36 340.00 23.00
C 340.79 24.16 338.04 25.53 340.00 26.00
C 340.22 25.21 341.37 21.11 342.00 23.00
C 341.81 21.62 328.98 18.06 327.00 22.00 Z" data-index="110"></path>
</g>
<g fill="#345943" fill-opacity="1.00" stroke="None">
<path d="
M 363.00 21.00 
C 354.91 18.45 346.68 27.66 355.00 32.00 C 363.32 36.34 371.84 23.79 363.00 21.00
M 362.00 22.00 
C 368.48 24.24 362.76 34.03 356.00 31.00 C 349.24 27.97 355.51 19.76 362.00 22.00 Z" data-index="111"></path>
</g>
<g fill="#385B43" fill-opacity="1.00" stroke="None">
<path d="
M 81.00 32.00 
C 81.31 31.96 81.77 32.94 82.00 33.00
C 83.68 32.41 85.27 32.35 87.00 32.00
C 83.90 31.52 85.12 30.95 86.00 30.00
C 91.05 24.56 97.41 26.07 104.00 24.00 C 110.59 21.93 114.33 29.50 121.00 29.00
C 119.49 28.21 117.50 26.87 116.00 26.00
C 102.92 18.40 92.11 24.30 81.00 32.00 Z" data-index="112"></path>
</g>
<g fill="#2A5239" fill-opacity="1.00" stroke="None">

</g>
<g fill="#2E5A41" fill-opacity="1.00" stroke="None">
<path d="
M 340.00 26.00 
C 336.08 39.77 331.82 53.58 330.00 68.00
C 325.98 67.36 320.44 69.68 318.00 66.00
C 318.26 66.85 317.61 68.21 318.00 69.00
C 322.67 69.00 327.33 69.00 332.00 69.00
C 334.52 65.68 332.14 56.31 334.22 52.22 C 336.30 48.14 337.20 41.90 338.68 37.68 C 340.16 33.46 342.61 27.35 342.00 23.00
C 341.37 21.11 340.22 25.21 340.00 26.00 Z" data-index="114" style="opacity: 1;"></path>
</g>
<g fill="#5CA77D" fill-opacity="1.00" stroke="None">
<path d="
M 362.00 22.00 
C 355.51 19.76 349.24 27.97 356.00 31.00 C 362.76 34.03 368.48 24.24 362.00 22.00 Z" data-index="115"></path>
</g>
<g fill="#5BA578" fill-opacity="1.00" stroke="None">
<path d="
M 86.00 30.00 
C 89.28 28.73 94.83 28.76 98.00 30.00
C 108.59 34.16 116.50 37.86 128.00 39.00
C 129.11 38.86 129.34 38.22 130.00 38.00
C 131.66 35.88 138.91 34.19 143.00 32.00
C 141.97 29.63 137.96 32.46 137.00 30.00
C 135.67 30.05 134.33 30.00 133.00 30.00
C 133.00 30.00 132.50 30.00 132.00 30.00
C 131.00 30.00 130.00 30.00 129.00 30.00
C 129.94 30.26 132.26 31.13 133.00 32.00
C 129.28 31.80 124.23 32.28 122.00 29.00
C 121.56 28.84 121.00 29.00 121.00 29.00
C 114.33 29.50 110.59 21.93 104.00 24.00 C 97.41 26.07 91.05 24.56 86.00 30.00 Z" data-index="116" style="opacity: 1;"></path>
</g>
<g fill="#55A77A" fill-opacity="1.00" stroke="None">
<path d="
M 324.00 36.00 
C 323.66 36.23 323.00 36.00 323.00 36.00
C 317.67 39.94 303.85 35.91 298.92 42.92 C 293.99 49.93 288.81 56.54 294.31 64.69 C 299.80 72.85 310.57 66.99 316.00 66.00
C 317.68 65.69 316.77 65.38 318.00 66.00
C 320.44 69.68 325.98 67.36 330.00 68.00
C 331.82 53.58 336.08 39.77 340.00 26.00
C 338.04 25.53 340.79 24.16 340.00 23.00
C 336.14 22.36 331.81 23.85 328.00 23.00
C 328.26 25.49 326.11 34.86 324.00 36.00
M 312.00 61.00 
C 311.53 61.12 310.45 60.84 310.00 61.00
C 304.36 62.97 303.68 51.56 308.25 47.25 C 312.82 42.94 322.38 41.54 322.07 48.08 C 321.76 54.62 317.24 63.09 312.00 61.00 Z" data-index="117" style="opacity: 1;"></path>
</g>
<g fill="#5BA87B" fill-opacity="1.00" stroke="None">
<path d="
M 397.00 24.00 
C 397.55 23.47 390.81 27.26 386.32 28.32 C 381.83 29.38 378.72 33.36 375.70 36.70 C 372.68 40.03 370.32 47.30 371.00 52.00 C 371.68 56.70 374.43 61.15 378.25 63.75 C 382.06 66.35 389.47 69.47 389.00 69.00
C 389.94 69.27 390.53 69.87 392.00 70.00
C 395.29 69.83 401.50 69.86 403.00 70.00
C 404.64 69.91 405.91 69.25 407.00 69.00
C 406.00 69.00 405.00 69.00 404.00 69.00
C 409.35 69.10 413.54 64.63 410.00 59.00
C 408.49 58.70 407.85 59.81 407.00 60.00
C 402.63 62.68 387.46 61.29 385.22 52.78 C 382.99 44.26 388.47 37.09 396.08 33.08 C 403.68 29.06 417.52 36.40 419.00 25.00
C 413.05 23.21 405.45 25.19 400.00 23.00
C 398.63 23.12 397.87 23.75 397.00 24.00 Z" data-index="118" style="opacity: 1;"></path>
</g>
<g fill="#366146" fill-opacity="1.00" stroke="None">
<path d="
M 407.00 60.00 
C 395.41 63.28 381.46 54.37 387.70 42.70 C 393.94 31.02 405.99 32.14 417.00 34.00
C 417.58 30.53 420.19 27.67 420.00 24.00
C 413.68 22.93 406.66 22.43 400.00 23.00
C 405.45 25.19 413.05 23.21 419.00 25.00
C 417.52 36.40 403.68 29.06 396.08 33.08 C 388.47 37.09 382.99 44.26 385.22 52.78 C 387.46 61.29 402.63 62.68 407.00 60.00 Z" data-index="119" style="opacity: 1;"></path>
</g>
<g fill="#31563D" fill-opacity="1.00" stroke="None">
<path d="
M 168.00 70.00 
C 167.96 70.00 168.00 69.00 168.00 69.00
C 170.37 56.29 177.12 43.45 179.98 30.98 C 182.83 18.50 191.41 28.22 200.00 25.00
C 200.19 29.50 199.35 36.13 200.93 40.07 C 202.51 44.02 198.40 52.51 203.00 52.00
C 201.07 44.40 203.44 34.61 201.97 27.03 C 200.51 19.44 185.24 26.43 180.00 24.00
C 179.85 29.17 176.77 35.77 175.32 40.32 C 173.87 44.87 171.53 52.58 170.32 56.32 C 169.11 60.06 164.60 69.90 168.00 70.00 Z" data-index="120" style="opacity: 1;"></path>
</g>
<g fill="#295139" fill-opacity="1.00" stroke="None">
<path d="
M 204.00 52.00 
C 205.51 53.04 209.30 43.77 211.75 40.75 C 214.20 37.74 215.80 31.10 219.30 27.30 C 222.81 23.51 233.68 25.36 239.00 25.00
C 236.74 32.75 236.05 42.32 234.00 50.00 C 231.95 57.69 235.12 70.81 223.00 68.00
C 224.64 70.59 229.43 67.34 231.00 70.00
C 236.00 55.77 237.08 39.25 240.00 24.00
C 233.00 24.00 226.00 24.00 219.00 24.00
C 215.29 33.86 207.68 42.07 204.00 52.00 Z" data-index="121" style="opacity: 1;"></path>
</g>
<g fill="#2E573D" fill-opacity="1.00" stroke="None">
<path d="
M 389.00 69.00 
C 389.47 69.47 382.06 66.35 378.25 63.75 C 374.43 61.15 371.68 56.70 371.00 52.00 C 370.32 47.30 372.68 40.03 375.70 36.70 C 378.72 33.36 381.83 29.38 386.32 28.32 C 390.81 27.26 397.55 23.47 397.00 24.00
C 384.83 27.47 374.83 29.69 370.78 43.78 C 366.72 57.87 376.77 65.52 389.00 69.00 Z" data-index="122" style="opacity: 1;"></path>
</g>
<g fill="#78756A" fill-opacity="1.00" stroke="None">
<path d="
M 20.00 37.00 
C 23.42 34.89 25.61 31.04 29.00 29.00
C 29.82 30.95 25.24 32.64 28.00 34.00
C 29.35 31.37 30.92 28.76 32.00 26.00
C 32.00 26.00 31.81 25.41 32.00 25.00
C 27.36 26.30 21.89 32.98 20.00 37.00 Z" data-index="123"></path>
</g>
<g fill="#5BA577" fill-opacity="1.00" stroke="None">
<path d="
M 168.00 69.00 
C 169.67 67.65 176.01 67.12 178.00 68.00
C 180.21 63.67 181.60 56.78 183.33 52.33 C 185.06 47.88 184.80 39.21 189.00 37.00
C 189.93 35.61 189.82 37.02 190.00 38.00
C 190.08 38.18 191.00 38.00 191.00 38.00
C 191.47 37.69 192.94 47.32 192.78 50.22 C 192.62 53.12 193.48 59.10 193.00 63.00
C 194.62 63.06 193.71 66.12 194.00 67.00
C 197.33 67.00 200.67 67.00 204.00 67.00
C 208.67 57.91 215.32 43.38 223.00 37.00
C 224.14 36.06 223.84 34.94 225.00 36.00
C 227.96 38.68 222.11 49.52 222.02 54.02 C 221.94 58.53 219.18 67.76 219.00 70.00
C 220.09 70.74 229.78 70.62 231.00 70.00
C 229.43 67.34 224.64 70.59 223.00 68.00
C 235.12 70.81 231.95 57.69 234.00 50.00 C 236.05 42.32 236.74 32.75 239.00 25.00
C 233.68 25.36 222.81 23.51 219.30 27.30 C 215.80 31.10 214.20 37.74 211.75 40.75 C 209.30 43.77 205.51 53.04 204.00 52.00
C 204.00 52.00 203.35 51.77 203.00 52.00
C 198.40 52.51 202.51 44.02 200.93 40.07 C 199.35 36.13 200.19 29.50 200.00 25.00
C 191.41 28.22 182.83 18.50 179.98 30.98 C 177.12 43.45 170.37 56.29 168.00 69.00 Z" data-index="124" style="opacity: 1;"></path>
</g>
<g fill="#C5D6BE" fill-opacity="1.00" stroke="None">
<path d="
M 121.00 29.00 
C 121.00 29.00 121.56 28.84 122.00 29.00
C 124.26 29.80 126.47 30.01 129.00 30.00
C 130.00 30.00 131.00 30.00 132.00 30.00
C 127.60 27.92 120.45 28.54 116.00 26.00
C 117.50 26.87 119.49 28.21 121.00 29.00 Z" data-index="125" style="opacity: 1;"></path>
</g>
<g fill="#36563E" fill-opacity="1.00" stroke="None">

</g>
<g fill="#CCD8C1" fill-opacity="1.00" stroke="None">
<path d="
M 138.00 29.00 
C 135.98 29.31 134.47 28.58 133.00 30.00
C 134.33 30.00 135.67 30.05 137.00 30.00
C 138.81 29.93 139.78 29.33 141.00 29.00
C 140.41 28.90 139.44 28.41 139.00 28.00
C 138.75 28.09 138.35 28.95 138.00 29.00 Z" data-index="127"></path>
</g>
<g fill="#426E52" fill-opacity="1.00" stroke="None">
<path d="
M 141.00 29.00 
C 139.78 29.33 138.81 29.93 137.00 30.00
C 137.96 32.46 141.97 29.63 143.00 32.00
C 138.91 34.19 131.66 35.88 130.00 38.00
C 136.00 35.96 140.74 34.50 146.00 31.00
C 146.54 30.08 146.13 28.93 147.00 28.00
C 145.06 28.58 142.93 28.47 141.00 29.00 Z" data-index="128"></path>
</g>
<g fill="#5FA676" fill-opacity="1.00" stroke="None">
<path d="
M 515.00 44.00 
C 515.17 44.07 515.00 45.00 515.00 45.00
C 519.14 50.27 510.04 57.61 513.00 64.00 C 515.96 70.39 526.36 67.31 532.00 68.00
C 536.28 60.95 527.73 61.73 526.23 57.77 C 524.73 53.81 529.07 45.92 530.00 45.00
C 530.11 44.74 530.74 44.24 531.00 44.00
C 533.80 41.41 541.03 44.11 540.00 37.00
C 538.07 36.90 531.26 37.80 533.00 35.00
C 533.00 35.00 532.84 34.45 533.00 34.00
C 530.54 32.73 533.02 29.83 533.00 28.00
C 529.24 28.66 522.95 28.13 520.31 31.31 C 517.66 34.48 519.04 39.78 513.00 37.00
C 512.39 40.60 511.32 42.57 515.00 44.00 Z" data-index="129" style="opacity: 1;"></path>
</g>
<g fill="#B8AF9A" fill-opacity="1.00" stroke="None">
<path d="
M 20.00 37.00 
C 19.68 37.20 19.27 37.80 19.00 38.00
C 19.39 44.37 13.59 49.57 14.00 58.00 C 14.41 66.43 16.47 70.46 19.92 78.08 C 23.36 85.70 28.73 84.80 35.00 79.00
C 32.04 73.27 24.33 67.16 26.00 61.00
C 25.57 59.80 25.76 59.89 25.00 59.00
C 22.40 55.97 21.23 45.00 25.00 45.00
C 25.15 44.55 24.98 43.50 25.00 43.00
C 23.80 40.37 24.79 40.37 26.00 38.00
C 26.51 36.60 27.32 35.33 28.00 34.00
C 25.24 32.64 29.82 30.95 29.00 29.00
C 25.61 31.04 23.42 34.89 20.00 37.00 Z" data-index="130"></path>
</g>
<g fill="#517C63" fill-opacity="1.00" stroke="None">
<path d="
M 86.00 30.00 
C 85.12 30.95 83.90 31.52 87.00 32.00
C 91.61 31.07 94.83 29.91 99.00 32.00
C 98.60 31.56 98.37 30.33 98.00 30.00
C 94.83 28.76 89.28 28.73 86.00 30.00 Z" data-index="131"></path>
</g>
<g fill="#386E48" fill-opacity="1.00" stroke="None">
<path d="
M 129.00 30.00 
C 126.47 30.01 124.26 29.80 122.00 29.00
C 124.23 32.28 129.28 31.80 133.00 32.00
C 132.26 31.13 129.94 30.26 129.00 30.00 Z" data-index="132"></path>
</g>
<g fill="#335941" fill-opacity="1.00" stroke="None">
<path d="
M 99.00 32.00 
C 105.31 38.91 119.12 40.09 128.00 39.00
C 116.50 37.86 108.59 34.16 98.00 30.00
C 98.37 30.33 98.60 31.56 99.00 32.00 Z" data-index="133"></path>
</g>
<g fill="#2F312B" fill-opacity="1.00" stroke="None">
<path d="
M 75.00 36.00 
C 74.07 37.70 75.11 38.20 75.00 39.00
C 76.74 35.83 78.45 34.25 82.00 33.00
C 81.77 32.94 81.31 31.96 81.00 32.00
C 78.95 33.42 76.90 34.56 75.00 36.00 Z" data-index="134"></path>
</g>
<g fill="#96B19F" fill-opacity="1.00" stroke="None">

</g>
<g fill="#827D72" fill-opacity="1.00" stroke="None">
<path d="
M 125.00 75.00 
C 124.81 75.08 125.00 76.00 125.00 76.00
C 132.45 76.12 141.22 64.58 144.00 59.00
C 141.26 61.01 137.03 68.11 132.00 70.00
C 138.82 61.66 136.32 49.24 131.00 41.00
C 135.04 39.74 138.75 37.50 143.00 37.00
C 144.34 40.73 143.39 45.72 146.00 48.00
C 146.12 43.37 144.70 39.13 143.00 35.00
C 138.37 36.81 133.84 38.90 129.00 40.00
C 136.68 50.02 137.14 69.54 125.00 75.00 Z" data-index="136" style="opacity: 1;"></path>
</g>
<g fill="#CDE9D8" fill-opacity="1.00" stroke="None">
<path d="
M 223.00 37.00 
C 222.13 38.21 221.73 40.66 221.00 42.00
C 221.06 42.25 222.92 43.65 223.00 44.00
C 223.37 42.51 225.49 37.33 225.00 36.00
C 223.84 34.94 224.14 36.06 223.00 37.00 Z" data-index="137"></path>
</g>
<g fill="#305B42" fill-opacity="1.00" stroke="None">
<path d="
M 259.00 58.00 
C 260.46 56.29 263.79 57.09 266.00 57.00
C 269.55 56.86 272.68 56.76 276.00 56.00
C 273.34 55.74 254.24 53.94 258.26 59.75 C 262.28 65.55 273.62 61.02 279.00 61.00
C 281.18 71.17 265.33 68.89 259.00 69.00 C 252.67 69.11 243.63 62.96 244.40 56.26 C 245.18 49.55 249.07 43.05 255.75 39.75 C 262.43 36.44 271.38 35.54 279.23 38.77 C 287.08 42.01 283.13 53.18 278.00 55.00
C 296.42 46.61 277.98 33.59 266.00 36.00 C 254.02 38.41 238.66 46.43 244.08 60.92 C 249.49 75.41 270.12 69.29 281.00 68.00
C 280.05 65.12 279.77 62.17 280.00 59.00
C 273.83 60.99 263.92 63.51 259.00 58.00 Z" data-index="138" style="opacity: 1;"></path>
</g>
<g fill="#315B42" fill-opacity="1.00" stroke="None">
<path d="
M 316.00 66.00 
C 310.57 66.99 299.80 72.85 294.31 64.69 C 288.81 56.54 293.99 49.93 298.92 42.92 C 303.85 35.91 317.67 39.94 323.00 36.00
C 321.30 36.22 319.99 35.12 319.00 35.00
C 307.32 36.65 293.98 37.87 291.00 53.00 C 288.02 68.13 303.86 73.26 316.00 66.00 Z" data-index="139" style="opacity: 1;"></path>
</g>
<g fill="#385E45" fill-opacity="1.00" stroke="None">
<path d="
M 446.00 64.00 
C 440.73 64.09 430.64 72.21 424.77 66.23 C 418.90 60.25 420.43 54.50 423.77 47.77 C 427.11 41.05 433.75 39.36 440.67 37.67 C 447.59 35.98 457.57 36.58 465.00 38.00
C 463.85 47.63 458.53 57.48 460.00 67.00
C 456.39 68.71 453.03 67.14 449.00 68.00
C 449.11 66.30 449.38 63.16 447.00 65.00
C 447.00 66.33 447.00 67.67 447.00 69.00
C 451.67 69.00 456.33 69.00 461.00 69.00
C 460.49 57.68 464.58 47.53 467.00 37.00
C 456.96 33.87 441.84 34.33 432.70 38.69 C 423.55 43.06 415.41 51.75 420.08 62.92 C 424.75 74.09 438.90 69.03 446.00 64.00 Z" data-index="140"></path>
</g>
<g fill="#345B40" fill-opacity="1.00" stroke="None">
<path d="
M 487.00 59.00 
C 490.81 57.21 481.30 54.75 476.77 51.23 C 472.24 47.71 475.17 39.07 482.08 38.08 C 488.98 37.08 495.83 34.16 503.00 37.00
C 505.86 46.83 485.33 38.70 487.01 46.01 C 488.69 53.32 502.78 48.91 501.97 58.03 C 501.17 67.14 491.98 67.35 485.00 68.00
C 486.02 68.18 487.37 69.00 489.00 69.00
C 495.83 68.96 504.40 63.94 502.97 56.03 C 501.55 48.12 490.10 50.72 488.00 44.00
C 492.50 42.46 497.48 43.82 502.00 45.00
C 502.15 41.71 505.47 39.45 505.00 36.00
C 498.05 34.60 489.92 34.63 483.08 36.08 C 476.23 37.52 471.94 43.13 473.25 49.75 C 474.56 56.38 486.68 53.75 487.00 59.00 Z" data-index="141"></path>
</g>
<g fill="#2C5438" fill-opacity="1.00" stroke="None">
<path d="
M 531.00 44.00 
C 533.86 43.37 537.11 44.48 540.00 44.00
C 540.74 43.22 541.18 38.14 541.00 37.00
C 539.30 34.44 534.61 37.63 533.00 35.00
C 531.26 37.80 538.07 36.90 540.00 37.00
C 541.03 44.11 533.80 41.41 531.00 44.00 Z" data-index="142"></path>
</g>
<g fill="#8F9F91" fill-opacity="1.00" stroke="None">
<path d="
M 541.00 37.00 
C 540.51 33.82 537.44 35.40 533.00 35.00
C 534.61 37.63 539.30 34.44 541.00 37.00 Z" data-index="143"></path>
</g>
<g fill="#335C42" fill-opacity="1.00" stroke="None">
<path d="
M 86.00 86.00 
L 108.00 86.00
C 113.20 82.74 121.70 82.74 125.00 76.00
C 125.00 76.00 124.81 75.08 125.00 75.00
C 121.02 76.32 117.29 76.84 113.00 77.00
C 110.27 77.39 107.65 77.32 105.00 77.00
C 86.45 76.63 63.93 59.09 75.00 39.00
C 75.11 38.20 74.07 37.70 75.00 36.00
C 66.16 42.70 56.12 54.02 61.23 65.77 C 66.33 77.52 75.52 81.82 86.00 86.00
M 73.00 40.00 
C 61.44 66.99 98.02 84.81 121.00 78.00
C 107.53 87.95 86.04 87.41 72.25 77.75 C 58.46 68.08 58.26 48.11 73.00 40.00 Z" data-index="144" style="opacity: 1;"></path>
</g>
<g fill="#2B5039" fill-opacity="1.00" stroke="None">

</g>
<g fill="#2C5941" fill-opacity="1.00" stroke="None">
<path d="
M 341.00 69.00 
C 346.00 69.00 351.00 69.00 356.00 69.00
C 358.68 57.98 361.54 47.05 364.00 36.00
C 359.00 36.00 354.00 36.00 349.00 36.00
C 348.47 40.56 344.69 48.53 344.78 52.78 C 344.87 57.03 338.96 65.83 341.00 69.00
M 362.00 37.00 
C 361.00 47.70 355.95 57.28 355.00 68.00
C 351.00 68.00 347.00 68.00 343.00 68.00
C 347.66 56.96 343.67 32.80 362.00 37.00 Z" data-index="146" style="opacity: 1;"></path>
</g>
<g fill="#5FA677" fill-opacity="1.00" stroke="None">
<path d="
M 446.00 64.00 
C 446.33 63.99 447.01 64.67 447.00 65.00
C 449.38 63.16 449.11 66.30 449.00 68.00
C 453.03 67.14 456.39 68.71 460.00 67.00
C 458.53 57.48 463.85 47.63 465.00 38.00
C 457.57 36.58 447.59 35.98 440.67 37.67 C 433.75 39.36 427.11 41.05 423.77 47.77 C 420.43 54.50 418.90 60.25 424.77 66.23 C 430.64 72.21 440.73 64.09 446.00 64.00
M 446.00 44.00 
C 446.79 44.17 448.19 44.09 449.00 44.00
C 452.44 43.60 450.17 53.69 447.23 57.23 C 444.29 60.77 437.11 63.46 433.00 59.00
C 433.52 52.70 438.95 41.90 446.00 44.00 Z" data-index="147" style="opacity: 1;"></path>
</g>
<g fill="#5EA677" fill-opacity="1.00" stroke="None">
<path d="
M 487.00 59.00 
C 486.73 59.13 486.41 60.81 486.00 61.00
C 486.82 64.98 480.40 60.12 474.78 61.22 C 469.16 62.32 469.02 67.57 477.00 68.00
C 479.64 68.14 482.36 68.05 485.00 68.00
C 491.98 67.35 501.17 67.14 501.97 58.03 C 502.78 48.91 488.69 53.32 487.01 46.01 C 485.33 38.70 505.86 46.83 503.00 37.00
C 495.83 34.16 488.98 37.08 482.08 38.08 C 475.17 39.07 472.24 47.71 476.77 51.23 C 481.30 54.75 490.81 57.21 487.00 59.00 Z" data-index="148" style="opacity: 1;"></path>
</g>
<g fill="#B8AE99" fill-opacity="1.00" stroke="None">
<path d="
M 144.00 59.00 
C 144.42 58.15 144.66 58.15 145.00 57.00
C 144.86 54.47 144.97 52.80 146.00 50.00
C 146.21 48.57 146.09 48.86 146.00 48.00
C 143.39 45.72 144.34 40.73 143.00 37.00
C 138.75 37.50 135.04 39.74 131.00 41.00
C 136.32 49.24 138.82 61.66 132.00 70.00
C 137.03 68.11 141.26 61.01 144.00 59.00 Z" data-index="149" style="opacity: 1;"></path>
</g>
<g fill="#2F553C" fill-opacity="1.00" stroke="None">
<path d="
M 178.00 68.00 
C 177.80 68.40 178.19 69.92 178.00 70.00
C 182.05 71.36 182.07 56.98 184.22 54.22 C 186.37 51.47 186.93 40.08 189.00 37.00
C 184.80 39.21 185.06 47.88 183.33 52.33 C 181.60 56.78 180.21 63.67 178.00 68.00 Z" data-index="150" style="opacity: 1;"></path>
</g>
<g fill="#1F432A" fill-opacity="1.00" stroke="None">
<path d="
M 191.00 38.00 
C 191.27 40.94 191.00 44.04 191.00 47.00
C 191.00 49.37 190.04 54.72 191.22 56.78 C 192.40 58.84 190.73 63.61 192.00 65.00
C 192.11 64.53 192.88 63.94 193.00 63.00
C 193.48 59.10 192.62 53.12 192.78 50.22 C 192.94 47.32 191.47 37.69 191.00 38.00 Z" data-index="151"></path>
</g>
<g fill="#2D523B" fill-opacity="1.00" stroke="None">
<path d="
M 204.00 67.00 
C 203.91 67.18 203.04 68.98 203.00 69.00
C 204.10 69.93 208.50 62.01 209.25 60.25 C 209.99 58.48 214.09 53.69 215.23 51.23 C 216.37 48.77 219.69 44.42 221.00 42.00
C 221.73 40.66 222.13 38.21 223.00 37.00
C 215.32 43.38 208.67 57.91 204.00 67.00 Z" data-index="152" style="opacity: 1;"></path>
</g>
<g fill="#56A579" fill-opacity="1.00" stroke="None">
<path d="
M 276.00 56.00 
C 277.04 55.76 277.33 55.28 278.00 55.00
C 283.13 53.18 287.08 42.01 279.23 38.77 C 271.38 35.54 262.43 36.44 255.75 39.75 C 249.07 43.05 245.18 49.55 244.40 56.26 C 243.63 62.96 252.67 69.11 259.00 69.00 C 265.33 68.89 281.18 71.17 279.00 61.00
C 273.62 61.02 262.28 65.55 258.26 59.75 C 254.24 53.94 273.34 55.74 276.00 56.00
M 258.00 49.00 
C 259.06 44.66 268.40 38.87 272.22 43.78 C 276.05 48.68 261.67 52.91 258.00 49.00 Z" data-index="153" style="opacity: 1;"></path>
</g>
<g fill="#56A97C" fill-opacity="1.00" stroke="None">
<path d="
M 362.00 37.00 
C 343.67 32.80 347.66 56.96 343.00 68.00
C 347.00 68.00 351.00 68.00 355.00 68.00
C 355.95 57.28 361.00 47.70 362.00 37.00 Z" data-index="154" style="opacity: 1;"></path>
</g>
<g fill="#7F7A6D" fill-opacity="1.00" stroke="None">
<path d="
M 23.00 86.00 
L 28.00 86.00
C 29.84 83.32 33.02 81.03 36.00 80.00
C 33.63 73.40 28.45 67.85 26.00 61.00
C 24.33 67.16 32.04 73.27 35.00 79.00
C 28.73 84.80 23.36 85.70 19.92 78.08 C 16.47 70.46 14.41 66.43 14.00 58.00 C 13.59 49.57 19.39 44.37 19.00 38.00
C 12.17 43.10 13.06 56.01 13.01 63.99 C 12.96 71.97 19.28 79.36 23.00 86.00 Z" data-index="155"></path>
</g>
<g fill="#6B655A" fill-opacity="1.00" stroke="None">
<path d="
M 25.00 43.00 
C 25.06 41.23 25.42 39.58 26.00 38.00
C 24.79 40.37 23.80 40.37 25.00 43.00 Z" data-index="156"></path>
</g>
<g fill="#899C8E" fill-opacity="1.00" stroke="None">
<path d="
M 191.00 47.00 
C 191.00 44.04 191.27 40.94 191.00 38.00
C 191.00 38.00 190.08 38.18 190.00 38.00
C 190.48 40.57 190.80 44.93 191.00 47.00 Z" data-index="157"></path>
</g>
<g fill="#5BAB7C" fill-opacity="1.00" stroke="None">
<path d="
M 73.00 40.00 
C 58.26 48.11 58.46 68.08 72.25 77.75 C 86.04 87.41 107.53 87.95 121.00 78.00
C 98.02 84.81 61.44 66.99 73.00 40.00 Z" data-index="158" style="opacity: 1;"></path>
</g>
<g fill="#346244" fill-opacity="1.00" stroke="None">
<path d="
M 258.00 49.00 
C 261.67 52.91 276.05 48.68 272.22 43.78 C 268.40 38.87 259.06 44.66 258.00 49.00
M 260.00 49.00 
C 259.74 45.26 268.70 41.16 271.22 44.78 C 273.74 48.40 262.71 50.06 260.00 49.00 Z" data-index="159" style="opacity: 1;"></path>
</g>
<g fill="#325E42" fill-opacity="1.00" stroke="None">
<path d="
M 310.00 61.00 
C 302.45 57.93 307.67 44.02 316.07 44.07 C 324.48 44.13 319.17 59.13 312.00 61.00
C 317.24 63.09 321.76 54.62 322.07 48.08 C 322.38 41.54 312.82 42.94 308.25 47.25 C 303.68 51.56 304.36 62.97 310.00 61.00 Z" data-index="160" style="opacity: 1;"></path>
</g>
<g fill="#395F43" fill-opacity="1.00" stroke="None">
<path d="
M 449.00 44.00 
C 451.14 44.91 446.24 63.59 439.00 60.00 C 431.76 56.41 439.07 44.68 446.00 44.00
C 438.95 41.90 433.52 52.70 433.00 59.00
C 437.11 63.46 444.29 60.77 447.23 57.23 C 450.17 53.69 452.44 43.60 449.00 44.00 Z" data-index="161" style="opacity: 1;"></path>
</g>
<g fill="#787366" fill-opacity="1.00" stroke="None">
<path d="
M 25.00 59.00 
C 23.38 54.88 23.58 49.11 25.00 45.00
C 21.23 45.00 22.40 55.97 25.00 59.00 Z" data-index="162"></path>
</g>
<g fill="#E7F1E7" fill-opacity="1.00" stroke="None">

</g>
<g fill="#F3F7F3" fill-opacity="1.00" stroke="None">
<path d="
M 310.00 61.00 
C 310.45 60.84 311.53 61.12 312.00 61.00
C 319.17 59.13 324.48 44.13 316.07 44.07 C 307.67 44.02 302.45 57.93 310.00 61.00 Z" data-index="164" style="opacity: 1; visibility: hidden;"></path>
</g>
<g fill="#F6FAF5" fill-opacity="1.00" stroke="None">

</g>
<g fill="#A2BAA7" fill-opacity="1.00" stroke="None">
<path d="
M 515.00 46.00 
C 515.16 45.55 515.00 45.00 515.00 45.00
C 515.00 45.00 515.17 44.07 515.00 44.00
C 513.51 43.49 511.53 44.39 510.00 44.00
C 510.57 45.09 513.73 45.72 515.00 46.00 Z" data-index="166"></path>
</g>
<g fill="#2F533A" fill-opacity="1.00" stroke="None">
<path d="
M 515.00 45.00 
C 515.00 45.00 515.16 45.55 515.00 46.00
C 511.97 54.65 507.63 66.18 519.00 69.00
C 521.78 69.34 528.45 70.04 531.00 69.00
C 534.76 68.35 532.78 62.55 535.00 60.00
C 524.38 62.46 529.34 52.19 530.00 47.00
C 530.06 46.51 529.82 45.42 530.00 45.00
C 529.07 45.92 524.73 53.81 526.23 57.77 C 527.73 61.73 536.28 60.95 532.00 68.00
C 526.36 67.31 515.96 70.39 513.00 64.00 C 510.04 57.61 519.14 50.27 515.00 45.00 Z" data-index="167" style="opacity: 1;"></path>
</g>
<g fill="#B3C8B9" fill-opacity="1.00" stroke="None">
<path d="
M 530.00 45.00 
C 529.82 45.42 530.06 46.51 530.00 47.00
C 532.32 45.72 538.30 45.81 540.00 44.00
C 537.11 44.48 533.86 43.37 531.00 44.00
C 530.74 44.24 530.11 44.74 530.00 45.00 Z" data-index="168"></path>
</g>
<g fill="#7A776C" fill-opacity="1.00" stroke="None">
<path d="
M 145.00 57.00 
C 145.73 54.57 145.63 52.54 146.00 50.00
C 144.97 52.80 144.86 54.47 145.00 57.00 Z" data-index="169"></path>
</g>
<g fill="#3B6049" fill-opacity="1.00" stroke="None">
<path d="
M 563.00 62.00 
C 562.88 61.84 557.85 56.04 561.76 54.75 C 565.66 53.47 570.30 51.47 573.00 55.00
C 562.00 54.91 566.50 57.50 571.69 61.31 C 576.89 65.11 560.99 71.55 559.00 67.00
C 561.26 65.10 565.27 66.51 568.00 65.00
C 567.43 63.86 566.29 60.56 565.00 63.00
C 566.68 62.62 565.28 65.12 563.96 64.97 C 562.64 64.82 560.18 63.96 560.00 64.00
C 559.00 64.00 558.00 64.00 557.00 64.00
C 554.75 71.04 565.44 70.29 570.75 67.75 C 576.06 65.21 572.00 58.02 567.00 57.00
C 569.62 54.53 574.47 58.64 575.00 53.00
C 568.64 47.44 551.23 56.86 563.00 62.00 Z" data-index="170"></path>
</g>
<g fill="#375D42" fill-opacity="1.00" stroke="None">
<path d="
M 589.00 61.00 
C 588.84 62.33 588.65 64.71 589.00 66.00
C 591.75 71.20 595.90 67.68 600.00 68.00
C 596.28 66.04 585.25 65.49 591.75 57.75 C 598.26 50.02 602.45 54.53 610.00 54.00
C 608.11 58.08 607.39 62.49 607.00 67.00
C 605.22 67.25 601.64 65.97 602.00 69.00
C 604.00 69.00 606.00 69.00 608.00 69.00
C 609.56 62.63 613.11 51.50 605.00 52.00 C 596.89 52.50 589.96 52.78 589.00 61.00 Z" data-index="171" style="opacity: 1;"></path>
</g>
<g fill="#5DA47C" fill-opacity="1.00" stroke="None">
<path d="
M 563.00 62.00 
C 564.02 62.45 563.40 62.97 565.00 63.00
C 566.29 60.56 567.43 63.86 568.00 65.00
C 565.27 66.51 561.26 65.10 559.00 67.00
C 560.99 71.55 576.89 65.11 571.69 61.31 C 566.50 57.50 562.00 54.91 573.00 55.00
C 570.30 51.47 565.66 53.47 561.76 54.75 C 557.85 56.04 562.88 61.84 563.00 62.00 Z" data-index="172" style="opacity: 1;"></path>
</g>
<g fill="#62A87B" fill-opacity="1.00" stroke="None">
<path d="
M 600.00 68.00 
C 600.51 68.27 601.43 68.85 602.00 69.00
C 601.64 65.97 605.22 67.25 607.00 67.00
C 607.39 62.49 608.11 58.08 610.00 54.00
C 602.45 54.53 598.26 50.02 591.75 57.75 C 585.25 65.49 596.28 66.04 600.00 68.00
M 602.00 56.00 
C 602.29 56.22 602.78 56.71 603.00 57.00
C 605.14 59.84 602.55 64.29 600.00 64.00
C 599.11 63.90 597.89 63.90 597.00 64.00
C 592.29 64.55 597.21 52.37 602.00 56.00 Z" data-index="173" style="opacity: 1;"></path>
</g>
<g fill="#355E43" fill-opacity="1.00" stroke="None">
<path d="
M 597.00 64.00 
C 593.20 61.86 599.71 56.04 602.00 56.00
C 597.21 52.37 592.29 64.55 597.00 64.00 Z" data-index="174" style="opacity: 1;"></path>
</g>
<g fill="#EBF6EE" fill-opacity="1.00" stroke="None">

</g>
<g fill="#84AC98" fill-opacity="1.00" stroke="None">
<path d="
M 259.00 58.00 
C 261.36 58.91 264.33 57.20 266.00 57.00
C 263.79 57.09 260.46 56.29 259.00 58.00 Z" data-index="176"></path>
</g>
<g fill="#305B3B" fill-opacity="1.00" stroke="None">

</g>
<g fill="#2F5943" fill-opacity="1.00" stroke="None">
<path d="
M 407.00 69.00 
C 408.99 68.54 414.63 68.72 412.93 65.07 C 411.22 61.43 413.41 59.68 410.00 59.00
C 413.54 64.63 409.35 69.10 404.00 69.00
C 405.00 69.00 406.00 69.00 407.00 69.00 Z" data-index="178"></path>
</g>
<g fill="#395D44" fill-opacity="1.00" stroke="None">
<path d="
M 475.00 69.00 
C 476.23 68.89 476.29 68.18 477.00 68.00
C 469.02 67.57 469.16 62.32 474.78 61.22 C 480.40 60.12 486.82 64.98 486.00 61.00
C 480.71 61.50 475.78 60.42 471.00 59.00
C 470.85 62.29 467.53 64.55 468.00 68.00
C 470.40 68.49 472.59 68.57 475.00 69.00 Z" data-index="179"></path>
</g>
<g fill="#8B9C8C" fill-opacity="1.00" stroke="None">

</g>
<g fill="#31503A" fill-opacity="1.00" stroke="None">
<path d="
M 583.00 62.00 
C 578.25 59.91 573.34 66.30 578.00 69.00 C 582.66 71.70 587.78 64.10 583.00 62.00
M 582.00 63.00 
C 585.13 64.68 581.32 69.71 578.33 67.67 C 575.33 65.62 579.71 61.77 582.00 63.00 Z" data-index="181" style="opacity: 1;"></path>
</g>
<g fill="#30503D" fill-opacity="1.00" stroke="None">
<path d="
M 621.00 62.00 
C 617.31 59.54 610.19 65.06 614.78 68.22 C 619.36 71.38 625.33 64.89 621.00 62.00
M 620.00 63.00 
C 623.31 64.90 619.07 69.76 615.78 67.22 C 612.49 64.68 617.92 61.80 620.00 63.00 Z" data-index="182"></path>
</g>
<g fill="#47725A" fill-opacity="1.00" stroke="None">
<path d="
M 192.00 65.00 
C 190.82 69.90 200.09 70.34 203.00 69.00
C 203.04 68.98 203.91 67.18 204.00 67.00
C 200.67 67.00 197.33 67.00 194.00 67.00
C 193.71 66.12 194.62 63.06 193.00 63.00
C 192.88 63.94 192.11 64.53 192.00 65.00 Z" data-index="183"></path>
</g>
<g fill="#BADEC3" fill-opacity="1.00" stroke="None">

</g>
<g fill="#63AA7E" fill-opacity="1.00" stroke="None">
<path d="
M 582.00 63.00 
C 579.71 61.77 575.33 65.62 578.33 67.67 C 581.32 69.71 585.13 64.68 582.00 63.00 Z" data-index="185"></path>
</g>
<g fill="#559E7B" fill-opacity="1.00" stroke="None">
<path d="
M 620.00 63.00 
C 617.92 61.80 612.49 64.68 615.78 67.22 C 619.07 69.76 623.31 64.90 620.00 63.00 Z" data-index="186"></path>
</g>
<g fill="#4B775D" fill-opacity="1.00" stroke="None">
<path d="
M 168.00 69.00 
C 168.00 69.00 167.96 70.00 168.00 70.00
C 170.32 70.21 175.91 70.93 178.00 70.00
C 178.19 69.92 177.80 68.40 178.00 68.00
C 176.01 67.12 169.67 67.65 168.00 69.00 Z" data-index="187"></path>
</g>
<g fill="#28583F" fill-opacity="1.00" stroke="None">
<path d="
M 392.00 70.00 
C 395.53 70.30 399.46 70.21 403.00 70.00
C 401.50 69.86 395.29 69.83 392.00 70.00 Z" data-index="188"></path>
</g>
<g fill="#5C846B" fill-opacity="1.00" stroke="None">
<path d="
M 475.00 69.00 
C 479.53 69.81 484.39 69.96 489.00 69.00
C 487.37 69.00 486.02 68.18 485.00 68.00
C 482.36 68.05 479.64 68.14 477.00 68.00
C 476.29 68.18 476.23 68.89 475.00 69.00 Z" data-index="189"></path>
</g>
<g fill="#85A595" fill-opacity="1.00" stroke="None">
<path d="
M 332.00 69.00 
C 327.33 69.00 322.67 69.00 318.00 69.00
C 319.00 71.03 330.72 70.69 332.00 69.00 Z" data-index="190"></path>
</g>
<g fill="#93B8A7" fill-opacity="1.00" stroke="None">
<path d="
M 356.00 69.00 
C 351.00 69.00 346.00 69.00 341.00 69.00
C 342.41 71.19 354.27 70.64 356.00 69.00 Z" data-index="191"></path>
</g>
<g fill="#809E8B" fill-opacity="1.00" stroke="None">
<path d="
M 531.00 69.00 
C 528.45 70.04 521.78 69.34 519.00 69.00
C 522.33 69.83 527.61 71.05 531.00 69.00 Z" data-index="192"></path>
</g>
<g fill="#94B39F" fill-opacity="1.00" stroke="None">

</g>
</svg>